<?xml version="1.0" encoding="utf-8"?>
<!-- Generator: Adobe Illustrator 26.4.1, SVG Export Plug-In . SVG Version: 6.00 Build 0)  -->
<svg version="1.1" id="Layer_1" xmlns="http://www.w3.org/2000/svg" xmlns:xlink="http://www.w3.org/1999/xlink" x="0px" y="0px"
	 viewBox="0 0 595.3 841.9" style="enable-background:new 0 0 595.3 841.9;" xml:space="preserve">
<style type="text/css">
	.st0{display:none;}
	.st1{display:inline;fill:#D1ECEE;}
	.st2{display:inline;fill:#5F666E;}
	.st3{fill:url(#SVGID_1_);}
	.st4{fill:#79A2B3;}
	.st5{fill:url(#SVGID_00000104684871115744018540000005398558872683196089_);}
	.st6{fill:#5F666E;}
	.st7{fill:#6D747B;}
	.st8{fill:#978871;}
	.st9{fill:url(#SVGID_00000145059456650110737970000010704073313460472496_);}
	.st10{fill:#7C6A5A;}
	.st11{fill:url(#SVGID_00000042000491886878049510000008071233993257578936_);}
	.st12{fill:url(#SVGID_00000178167021916532855390000004889765962715421360_);}
	.st13{fill:url(#SVGID_00000132054373986945325400000010229030886685323691_);}
	.st14{fill:url(#SVGID_00000178910075764311671700000008120316552689898666_);}
	.st15{fill:url(#SVGID_00000001622827003103207860000007726575339242162319_);}
	.st16{fill:#D1ECEE;}
	.st17{fill:#5E564B;}
	.st18{fill:#39B54A;}
	.st19{fill:url(#SVGID_00000011017274206850749110000008214331647297629614_);}
	.st20{fill:#B4DADF;}
	.st21{fill:url(#SVGID_00000104675628040760119500000015868859189941093792_);}
	.st22{display:inline;fill:url(#SVGID_00000165219165419021808280000018109052607897148571_);}
	.st23{display:inline;fill:#B4DADF;}
	.st24{display:inline;fill:#978871;}
	.st25{display:inline;fill:url(#SVGID_00000163032067609632280940000014802112642101058735_);}
	.st26{display:inline;fill:none;stroke:#D1ECEE;stroke-width:5;stroke-miterlimit:10;}
	.st27{display:inline;}
	.st28{fill:url(#SVGID_00000013178204978263084250000013027509320809726618_);}
	.st29{fill:url(#SVGID_00000153685642661578675430000007149284765746199715_);}
	.st30{fill:url(#SVGID_00000174599293925550035520000009947067789614900392_);}
	.st31{fill:url(#SVGID_00000164475313572857009140000006526353143888118158_);}
	.st32{fill:url(#SVGID_00000139976258211456481990000001923304815153552549_);}
	.st33{fill:url(#SVGID_00000013171956732249019940000017634342981722730404_);}
	.st34{fill:url(#SVGID_00000048485843816298556130000015463534324884826559_);}
	.st35{fill:url(#SVGID_00000003083300599555205180000012465044509557336454_);}
	.st36{fill:url(#SVGID_00000046312416782824433160000007910707169437886592_);}
	.st37{fill:url(#SVGID_00000112609766890935464980000010579489974992016026_);}
	.st38{fill:none;stroke:#D1ECEE;stroke-width:5;stroke-miterlimit:10;}
	.st39{fill:url(#SVGID_00000114763297412992866420000007979902092183499954_);}
	.st40{fill:url(#SVGID_00000101800215745411235980000018394465346959537573_);}
	.st41{fill:url(#SVGID_00000150082891523940940430000012337715274735518131_);}
	.st42{fill:url(#SVGID_00000161590515482394820850000016314738365121457563_);}
	.st43{fill:url(#SVGID_00000154394177245148901090000004787438221429346995_);}
	.st44{fill:url(#SVGID_00000113318998975180670100000005635689774030680192_);}
	.st45{fill:url(#SVGID_00000091705767952104957430000011766034768119979163_);}
	.st46{fill:url(#SVGID_00000124871089686079157150000015183311639886344353_);}
	.st47{fill:url(#SVGID_00000119113763652863775510000015860741303021407900_);}
	.st48{fill:url(#SVGID_00000039841948227626260910000014666901238797778865_);}
	.st49{fill:url(#SVGID_00000024711098418918774930000003874488159523117750_);}
	.st50{fill:url(#SVGID_00000104687746358889402600000002617078590993083533_);}
</style>
<g id="Layer_1_00000038388333761954162180000008856024383604252840_" class="st0">
	<polygon class="st1" points="633.6,316.9 697.2,425 638.7,443.2 	"/>
	<polygon class="st2" points="784.5,393.3 693.8,389 655.7,443.2 799.3,433 	"/>
</g>
<g id="Layer_2_00000119809555468892450080000013485944355848339357_">
	
		<linearGradient id="SVGID_1_" gradientUnits="userSpaceOnUse" x1="297.64" y1="-1.831054e-04" x2="297.64" y2="841.8898" gradientTransform="matrix(1 0 0 -1 0 841.8898)">
		<stop  offset="0" style="stop-color:#B4DADF"/>
		<stop  offset="0.2226" style="stop-color:#ACD2D9"/>
		<stop  offset="0.5816" style="stop-color:#97BDC9"/>
		<stop  offset="1" style="stop-color:#79A2B3"/>
	</linearGradient>
	<rect y="0" class="st3" width="595.3" height="841.9"/>
</g>
<g id="Layer_6">
	<g>
		<path class="st4" d="M90.7,485.5L31.3,492c-1.4,0.1-2.8-0.4-3.8-1.4l-2.8-2.8c-3.2-3.2-1.7-8.9,2.5-9.4l59.4-6.6
			c1.4-0.1,2.8,0.4,3.8,1.4l2.8,2.8C96.4,479.3,94.9,485,90.7,485.5z"/>
		<path class="st4" d="M37.4,479.9L-17.3,457c-1.3-0.5-2.8-0.4-4.1,0.4l-3.6,2c-4.2,2.4-4.6,8.6-0.8,10.2l54.8,22.9
			c1.3,0.5,2.8,0.4,4.1-0.4l3.6-2C40.8,487.8,41.3,481.5,37.4,479.9z"/>
		<path class="st4" d="M30.3,478.2l-55.7,20.9c-1.3,0.5-2.2,1.6-2.6,3.1l-1,3.9c-1.2,4.5,3.2,9.2,7.1,7.7l55.7-20.9
			c1.3-0.5,2.2-1.6,2.6-3.1l1-3.9C38.6,481.5,34.2,476.8,30.3,478.2z"/>
		<path class="st4" d="M83.8,514l-48.9-32.8c-1.1-0.8-2.6-0.9-4.1-0.4l-4,1.3c-4.6,1.5-6.3,7.6-2.9,9.9l48.9,32.8
			c1.1,0.8,2.6,0.9,4.2,0.4l4-1.3C85.4,522.4,87.2,516.3,83.8,514z"/>
		<path class="st4" d="M32.3,492.5h-2.5c-4.3,0-7.8-3.5-7.8-7.8v-90.1h18v90.1C40.1,489,36.6,492.5,32.3,492.5z"/>
		<path class="st4" d="M34.3,373.4l-3.1-99.8c-0.1-3.5,3.4-6,6.9-4.9l66.3,20.1c2.1,0.6,3.6,2.5,3.7,4.6l3.1,99.8
			c0.1,3.5-3.4,6-6.9,4.9L38,378C35.8,377.3,34.4,375.5,34.3,373.4z"/>
		<path class="st4" d="M37.2,440.1l-79.1-24c-1.8-0.5-2-2.9-0.3-3.7l66.1-33.4c0.5-0.3,1.1-0.3,1.6-0.1l79.1,24
			c1.8,0.5,2,2.9,0.3,3.7l-66.1,33.4C38.4,440.2,37.8,440.2,37.2,440.1z"/>
		<rect x="59.6" y="378.7" class="st4" width="8.8" height="18.1"/>
		<path class="st4" d="M30.7,366.3l-2.6-85.5c-0.1-3,2.9-5.1,5.9-4.2l56.9,17.3c1.8,0.5,3.1,2.1,3.1,4l2.6,85.5
			c0.1,3-2.9,5.1-5.9,4.2l-56.9-17.3C32,369.7,30.8,368.1,30.7,366.3z"/>
		<path class="st4" d="M-9.9,418.4c-20.2,14.2-27.7,41.9-35.6,31.8c-7.9-10.2,10-33.6,30.2-47.8c20.2-14.2,35.1-13.9,43-3.7
			C35.5,408.8,10.3,404.2-9.9,418.4z"/>
		<path class="st4" d="M10.8,434.5c-8.5,16.7,1.6,40.5-11,34.6s-11.5-29-3.1-45.7s21.1-20.5,33.7-14.7
			C43.1,414.5,19.3,417.8,10.8,434.5z"/>
		<path class="st4" d="M4.9,471.4c-6.3,10.6-20.4,3.5-21.2,3.1c-1.2-0.6-11.2-6-4.8-16.6s15.9-7.2,19-5.7
			C-0.2,453.2,11.3,460.9,4.9,471.4z"/>
		<path class="st4" d="M-36,449.5c-6.3,10.6-20.4,3.5-21.2,3.1c-1.2-0.6-11.2-6-4.8-16.6s15.9-7.2,19-5.7
			C-41.2,431.3-29.7,438.9-36,449.5z"/>
		<path class="st4" d="M9.4,374.6C8.9,389.9,5.9,402-7.7,401.5s-3.6-12.6-3.1-27.9s-8.5-27.9,5-27.4C7.9,346.8,10,359.3,9.4,374.6z"
			/>
		<path class="st4" d="M41.4,394.1c0,19.2-16.8,31.6-37,25.7c-19.9-5.8-11.5-15-11.5-34.2c0-19.2-11.7-47.3,9.5-47.3
			S41.4,374.9,41.4,394.1z"/>
		<path class="st4" d="M26.1,322.2c0,19-19.9,27.7-39.9,27.7s-33-8.5-33-27.5S-32,285.7-12,285.7S26.1,303.2,26.1,322.2z"/>
		<path class="st4" d="M-43.5,313.3c0,0.1-0.1,0.2-0.1,0.4c-1.5,7.5,2.1,14.5,8,15.6s10.6,0,12-7.5c0.4-1.8,0.5-3.9,0.4-5.9
			C-30,315.2-36.8,314.3-43.5,313.3z"/>
		<path class="st4" d="M18.3,318.2c-2.7,0.2-5.5,0.3-8.3,0.2c-7.6-0.3-15.2-0.9-22.8-1.5c-0.6,1.9-0.9,3.9-1,5.8
			c-0.4,8.6,6,11,15,11.6c9,0.6,16.7-6,17.1-14.5C18.4,319.2,18.4,318.7,18.3,318.2z"/>
		<path class="st4" d="M-34.3,314.6c-0.2,1.1-0.5,2.5-0.8,3.8c-0.5,2.5-0.6,5-0.7,7.5c0,2.4,0.8,4.6,1.9-0.2c1-4.7,1.3-6,2.5-10.7
			C-32.3,314.9-33.3,314.7-34.3,314.6z"/>
		<path class="st4" d="M-6.4,317.4c-0.3,1.3-0.6,2.9-0.9,4.5c-0.4,2.4-0.5,4.8-0.4,7.1c0.1,2.3,1.2,4.4,2.2-0.1
			c1.1-4.9,1.3-5.6,2.9-11.2C-3.9,317.6-5.2,317.3-6.4,317.4z"/>
		<path class="st4" d="M7.7,339.1c0,0,9.2,3.9,12.3,16.2c0,0-5.1-12.6-12.3-14.8C7.7,340.5,6.4,339.9,7.7,339.1z"/>
		<path class="st4" d="M6.9,342.1c0,0,7.2,6.9,5.3,19.3c0,0,0.1-13.4-5.8-18C6.4,343.4,5.4,342.4,6.9,342.1z"/>
		<polyline class="st4" points="-205.3,427.2 -205.3,565.1 -217.7,560.5 -217.7,422.4 		"/>
		<polyline class="st4" points="74,437 74,574.4 62.3,580.6 64.8,442.1 		"/>
		<polygon class="st4" points="-31,495.1 -31.5,631.1 -42.8,626.5 -42.8,490.2 		"/>
		<polygon class="st4" points="-19.1,488.5 -19.1,624.4 -31.5,631.1 -31,495.1 		"/>
		<path class="st4" d="M-205.3,565.1"/>
		<polygon class="st4" points="53.9,442.4 52.1,576.7 62.4,580.6 65.1,439.8 		"/>
		<polygon class="st4" points="-195.7,427 -195.7,559.5 -205.3,565.1 -205.3,427.2 		"/>
		<polygon class="st4" points="-112.2,362.8 -112.2,515.6 -102.1,509.5 -103.5,367.7 		"/>
		<polygon class="st4" points="-123.1,366.9 -124.6,510.9 -112.2,515.6 -112.2,361 		"/>
		<polygon class="st4" points="-227.6,418.2 -227.6,423 -30,495.6 81.3,437.5 81.3,432.1 -30.4,488.8 		"/>
		<polygon class="st4" points="81.3,432.1 -115.8,361.5 -227.6,418.2 -30.4,488.8 		"/>
		<path class="st4" d="M-45.2,419.7l-50.6-19.2c-1.3-0.5-2.9-0.4-4.1,0.3l-24,12.9c-3.8,2-3.4,7.5,0.6,9.1l50.6,19.2
			c1.3,0.5,2.9,0.4,4.1-0.3l24-12.9C-40.8,426.7-41.2,421.2-45.2,419.7z"/>
		<path class="st4" d="M-28,433.8l-102.7-39.5c-3-1.2-5-4.1-5-7.3l-0.2-65.5c0-5.5,5.5-9.3,10.7-7.3l102.7,39.5c3,1.2,5,4.1,5,7.3
			l0.2,65.5C-17.4,431.9-22.9,435.7-28,433.8z"/>
		<path class="st4" d="M-106.3,400.5l-1.4-0.5c-0.6-0.2-1-0.8-1-1.4l-0.1-16.4c0-1.1,1.1-1.8,2.1-1.4l1.4,0.5c0.6,0.2,1,0.8,1,1.4
			l0.1,16.4C-104.2,400.2-105.3,400.9-106.3,400.5z"/>
		<path class="st4" d="M-99.7,403.5l-1.4-0.5c-0.6-0.2-1-0.8-1-1.4l-0.1-16.4c0-1.1,1.1-1.8,2.1-1.4l1.4,0.5c0.6,0.2,1,0.8,1,1.4
			l0.1,16.4C-97.6,403.1-98.7,403.9-99.7,403.5z"/>
		<path class="st4" d="M-93,405.9l-1.4-0.5c-0.6-0.2-1-0.8-1-1.4l-0.1-16.4c0-1.1,1.1-1.8,2.1-1.4l1.4,0.5c0.6,0.2,1,0.8,1,1.4
			l0.1,16.4C-90.9,405.5-91.9,406.3-93,405.9z"/>
		<path class="st4" d="M-86.3,408.8l-1.4-0.5c-0.6-0.2-1-0.8-1-1.4l-0.1-16.4c0-1.1,1.1-1.8,2.1-1.4l1.4,0.5c0.6,0.2,1,0.8,1,1.4
			l0.1,16.4C-84.2,408.4-85.3,409.2-86.3,408.8z"/>
		<path class="st4" d="M-79.7,411.7l-1.4-0.5c-0.6-0.2-1-0.8-1-1.4l-0.1-16.4c0-1.1,1.1-1.8,2.1-1.4l1.4,0.5c0.6,0.2,1,0.8,1,1.4
			l0.1,16.4C-77.6,411.4-78.7,412.1-79.7,411.7z"/>
		<path class="st4" d="M-73,414.1l-1.4-0.5c-0.6-0.2-1-0.8-1-1.4l-0.1-16.4c0-1.1,1.1-1.8,2.1-1.4l1.4,0.5c0.6,0.2,1,0.8,1,1.4
			l0.1,16.4C-70.9,413.8-71.9,414.5-73,414.1z"/>
		<path class="st4" d="M-66.3,417l-1.4-0.5c-0.6-0.2-1-0.8-1-1.4l-0.1-16.4c0-1.1,1.1-1.8,2.1-1.4l1.4,0.5c0.6,0.2,1,0.8,1,1.4
			l0.1,16.4C-64.2,416.7-65.3,417.4-66.3,417z"/>
		<path class="st4" d="M28.2,420.7c6.4,6.1,4.2,13.5-4.1,16.5c-9.1,3.2-14.2,5.2-23.2,0.5c-7.8-4.1-5.4-15,2.9-17.9
			C12.2,416.9,21.3,414.1,28.2,420.7z"/>
		<path class="st4" d="M4.2,426.6c-2.3,1.8-3.5,4.1-2.6,5.3s1.9-1.4,4.2-3.2s5.1-2,4.2-3.2C9.1,424.4,6.6,424.9,4.2,426.6z"/>
		<path class="st4" d="M32.8,425.5c-2.2,6.6-8.1,3.9-17.3,3.9s-16-4.8-16-10.2c0-6.9,7.4-12.6,16.7-12.6S36.3,415.1,32.8,425.5z"/>
		<path class="st4" d="M38.8,383c2.2,18.4-6.3,33-9.2,32.8c-27-2.1-1.5-14.9-3.7-33.3c-2.2-18.4-7.3-32.9-4.4-33.2
			S36.5,364.6,38.8,383z"/>
		<path class="st4" d="M2.1,434.9c-1.1,0-2.2,0.1-3.2,0.1c-7,0.4-14.1,23-16.3,25.5c-7.8,9-26.6,9.4-47.9,2.3
			c-30.9-10.3-12.3-41.1,11.4-45.8"/>
		<g>
			<path class="st4" d="M-80.6,450.4"/>
		</g>
	</g>
	<g>
		<path class="st4" d="M782.5,442.9l-59.4,6.6c-1.4,0.1-2.8-0.4-3.8-1.4l-2.8-2.8c-3.2-3.2-1.7-8.9,2.5-9.4l59.4-6.6
			c1.4-0.1,2.8,0.4,3.8,1.4l2.8,2.8C788.3,436.6,786.7,442.4,782.5,442.9z"/>
		<path class="st4" d="M729.3,437.3l-54.8-22.9c-1.3-0.5-2.8-0.4-4.2,0.4l-3.6,2c-4.2,2.4-4.6,8.6-0.8,10.2l54.8,22.9
			c1.3,0.5,2.8,0.4,4.2-0.4l3.6-2C732.7,445.2,733.1,438.9,729.3,437.3z"/>
		<path class="st4" d="M722.2,435.6l-55.7,20.9c-1.3,0.5-2.2,1.6-2.6,3.1l-1,3.9c-1.2,4.5,3.2,9.2,7.1,7.7l55.7-20.9
			c1.3-0.5,2.2-1.6,2.6-3.1l1-3.9C730.5,438.9,726.1,434.1,722.2,435.6z"/>
		<path class="st4" d="M775.6,471.4l-48.9-32.8c-1.1-0.8-2.6-0.9-4.2-0.4l-4,1.3c-4.6,1.5-6.3,7.6-2.9,9.9l48.9,32.8
			c1.1,0.8,2.6,0.9,4.2,0.4l4-1.3C777.3,479.8,779,473.7,775.6,471.4z"/>
		<path class="st4" d="M724.2,449.9h-2.5c-4.3,0-7.8-3.5-7.8-7.8V352h18v90.1C731.9,446.4,728.4,449.9,724.2,449.9z"/>
		<path class="st4" d="M726.1,330.7l-3.1-99.8c-0.1-3.4,3.4-6,6.9-4.9l66.3,20.1c2.1,0.6,3.6,2.5,3.7,4.6l3.1,99.8
			c0.1,3.5-3.4,6-6.9,4.9l-66.3-20.1C727.7,334.7,726.2,332.9,726.1,330.7z"/>
		<path class="st4" d="M729.1,397.5l-79-24c-1.8-0.5-2-2.9-0.3-3.7l66.1-33.4c0.5-0.3,1.1-0.3,1.7-0.1l79,24c1.8,0.5,2,2.9,0.3,3.7
			l-66.1,33.4C730.2,397.6,729.6,397.6,729.1,397.5z"/>
		<rect x="751.4" y="336.1" class="st4" width="8.8" height="18.1"/>
		<path class="st4" d="M722.5,323.6l-2.6-85.5c-0.1-3,2.9-5.1,5.9-4.2l56.9,17.3c1.8,0.6,3.1,2.1,3.1,4l2.6,85.5
			c0.1,3-2.9,5.1-5.9,4.2l-56.9-17.3C723.9,327.1,722.6,325.5,722.5,323.6z"/>
		<path class="st4" d="M681.9,375.8c-20.2,14.2-27.7,41.9-35.6,31.8c-7.9-10.2,10-33.6,30.2-47.8c20.2-14.2,35.1-13.9,43-3.7
			C727.3,366.2,702.1,361.6,681.9,375.8z"/>
		<path class="st4" d="M702.7,391.9c-8.5,16.7,1.6,40.5-11,34.6c-12.6-5.8-11.5-29-3.1-45.7s21.1-20.5,33.7-14.7
			C735,371.9,711.1,375.1,702.7,391.9z"/>
		<path class="st4" d="M696.8,428.8c-6.3,10.6-20.4,3.5-21.2,3.1c-1.2-0.6-11.2-6-4.8-16.6s15.9-7.2,19-5.7
			C691.7,410.6,703.1,418.2,696.8,428.8z"/>
		<path class="st4" d="M655.8,406.9c-6.3,10.6-20.4,3.5-21.2,3.1c-1.2-0.6-11.2-6-4.8-16.6c6.3-10.6,15.9-7.2,19-5.7
			C650.7,388.6,662.1,396.3,655.8,406.9z"/>
		<path class="st4" d="M701.3,332c-0.5,15.3-3.5,27.4-17.1,26.9s-3.6-12.6-3-27.9c0.5-15.3-8.5-27.9,5-27.4
			C699.8,304.2,701.8,316.7,701.3,332z"/>
		<path class="st4" d="M733.2,351.4c0,19.2-16.8,31.6-37,25.7c-19.9-5.8-11.5-15-11.5-34.2c0-19.2-11.7-47.3,9.5-47.3
			S733.2,332.3,733.2,351.4z"/>
		<path class="st4" d="M717.9,279.6c0,19-19.9,27.7-39.9,27.7c-20,0-33-8.5-33-27.5s14.8-36.8,34.8-36.8S717.9,260.6,717.9,279.6z"
			/>
		<path class="st4" d="M648.3,270.7c0,0.1-0.1,0.2-0.1,0.4c-1.5,7.5,2.1,14.5,8,15.6c5.9,1.1,10.6,0,12-7.5c0.4-1.8,0.5-3.9,0.4-5.9
			C661.9,272.6,655.1,271.7,648.3,270.7z"/>
		<path class="st4" d="M710.2,275.6c-2.7,0.2-5.5,0.3-8.3,0.2c-7.6-0.3-15.2-0.9-22.8-1.5c-0.6,1.9-0.9,3.9-1,5.8
			c-0.4,8.6,6,11,15,11.6c9,0.6,16.7-6,17.1-14.5C710.2,276.6,710.2,276.1,710.2,275.6z"/>
		<path class="st4" d="M657.5,272c-0.2,1.1-0.5,2.5-0.8,3.8c-0.5,2.5-0.6,5-0.7,7.5c0,2.4,0.8,4.6,1.9-0.2c1-4.7,1.3-6,2.5-10.7
			C659.5,272.2,658.6,272,657.5,272z"/>
		<path class="st4" d="M685.4,274.8c-0.3,1.3-0.6,2.9-0.9,4.5c-0.5,2.4-0.5,4.8-0.4,7.1c0.1,2.3,1.2,4.4,2.2-0.1
			c1.1-4.9,1.3-5.6,2.9-11.2C687.9,275,686.7,274.7,685.4,274.8z"/>
		<path class="st4" d="M699.5,296.5c0,0,9.2,3.9,12.3,16.2c0,0-5.1-12.6-12.3-14.8C699.5,297.9,698.3,297.3,699.5,296.5z"/>
		<path class="st4" d="M698.8,299.5c0,0,7.2,6.9,5.3,19.3c0,0,0.1-13.4-5.8-18C698.2,300.8,697.3,299.8,698.8,299.5z"/>
		<polyline class="st4" points="486.5,384.6 486.5,522.5 474.2,517.8 474.2,379.8 		"/>
		<polyline class="st4" points="765.9,394.4 765.9,531.8 754.2,538 756.6,399.5 		"/>
		<polygon class="st4" points="660.8,452.5 660.4,588.5 649.1,583.8 649.1,447.6 		"/>
		<polygon class="st4" points="672.8,445.9 672.8,581.8 660.4,588.5 660.8,452.5 		"/>
		<path class="st4" d="M486.5,522.5"/>
		<polygon class="st4" points="745.7,399.8 744,534.1 754.2,538 757,397.2 		"/>
		<polygon class="st4" points="496.1,384.4 496.1,516.9 486.5,522.5 486.5,384.6 		"/>
		<polygon class="st4" points="579.7,320.2 579.7,473 589.7,466.8 588.3,325.1 		"/>
		<polygon class="st4" points="568.7,324.2 567.3,468.3 579.7,473 579.7,318.4 		"/>
		<polygon class="st4" points="464.3,375.6 464.3,380.4 661.9,453 773.2,394.9 773.2,389.5 661.4,446.2 		"/>
		<polygon class="st4" points="773.2,389.5 576,318.9 464.3,375.6 661.4,446.2 		"/>
		<path class="st4" d="M646.7,377.1l-50.6-19.2c-1.3-0.5-2.9-0.4-4.1,0.3l-24,12.9c-3.8,2-3.4,7.5,0.6,9.1l50.6,19.2
			c1.3,0.5,2.9,0.4,4.1-0.3l24-12.9C651,384.1,650.7,378.6,646.7,377.1z"/>
		<path class="st4" d="M663.8,391.1l-102.7-39.5c-3-1.2-5-4.1-5-7.3l-0.2-65.5c0-5.5,5.5-9.3,10.7-7.3L669.2,311c3,1.2,5,4.1,5,7.3
			l0.2,65.5C674.5,389.3,668.9,393.1,663.8,391.1z"/>
		<path class="st4" d="M585.5,357.9l-1.4-0.5c-0.6-0.2-1-0.8-1-1.4l0-16.4c0-1.1,1.1-1.8,2.1-1.4l1.4,0.5c0.6,0.2,1,0.8,1,1.4
			l0,16.4C587.6,357.6,586.5,358.3,585.5,357.9z"/>
		<path class="st4" d="M592.2,360.9l-1.4-0.5c-0.6-0.2-1-0.8-1-1.4l0-16.4c0-1.1,1.1-1.8,2.1-1.4l1.4,0.5c0.6,0.2,1,0.8,1,1.4
			l0,16.4C594.2,360.5,593.2,361.2,592.2,360.9z"/>
		<path class="st4" d="M598.9,363.3l-1.4-0.5c-0.6-0.2-1-0.8-1-1.4l0-16.4c0-1.1,1.1-1.8,2.1-1.4l1.4,0.5c0.6,0.2,1,0.8,1,1.4
			l0,16.4C601,362.9,599.9,363.6,598.9,363.3z"/>
		<path class="st4" d="M605.5,366.2l-1.4-0.5c-0.6-0.2-1-0.8-1-1.4l0-16.4c0-1.1,1.1-1.8,2.1-1.4l1.4,0.5c0.6,0.2,1,0.8,1,1.4
			l0,16.4C607.6,365.8,606.5,366.6,605.5,366.2z"/>
		<path class="st4" d="M612.2,369.1l-1.4-0.5c-0.6-0.2-1-0.8-1-1.4l0-16.4c0-1.1,1.1-1.8,2.1-1.4l1.4,0.5c0.6,0.2,1,0.8,1,1.4
			l0,16.4C614.3,368.7,613.2,369.5,612.2,369.1z"/>
		<path class="st4" d="M618.9,371.5l-1.4-0.5c-0.6-0.2-1-0.8-1-1.4l0-16.4c0-1.1,1.1-1.8,2.1-1.4l1.4,0.5c0.6,0.2,1,0.8,1,1.4
			l0,16.4C621,371.1,619.9,371.9,618.9,371.5z"/>
		<path class="st4" d="M625.5,374.4l-1.4-0.5c-0.6-0.2-1-0.8-1-1.4l0-16.4c0-1.1,1.1-1.8,2.1-1.4l1.4,0.5c0.6,0.2,1,0.8,1,1.4
			l0,16.4C627.6,374.1,626.5,374.8,625.5,374.4z"/>
		<path class="st4" d="M720.1,378.1c6.4,6.1,4.2,13.5-4.1,16.5c-9.1,3.2-14.2,5.2-23.2,0.5c-7.8-4.1-5.5-15,2.9-17.9
			C704,374.3,713.1,371.5,720.1,378.1z"/>
		<path class="st4" d="M696.1,384c-2.3,1.8-3.5,4.1-2.6,5.3s1.9-1.4,4.2-3.2s5.1-2,4.2-3.2C701,381.8,698.4,382.2,696.1,384z"/>
		<path class="st4" d="M724.6,382.8c-2.2,6.6-8.1,3.9-17.3,3.9s-16-4.8-16-10.2c0-6.9,7.5-12.6,16.7-12.6S728.2,372.5,724.6,382.8z"
			/>
		<path class="st4" d="M730.6,340.4c2.2,18.4-6.3,33-9.2,32.8c-27-2.1-1.5-14.9-3.7-33.3c-2.2-18.4-7.3-32.9-4.4-33.2
			S728.3,322,730.6,340.4z"/>
		<path class="st4" d="M694,392.3c-1.1,0-2.2,0.1-3.2,0.1c-7,0.4-14.1,23-16.3,25.5c-7.8,9-26.6,9.4-47.9,2.3
			c-30.9-10.3-12.3-41.1,11.4-45.8"/>
		<g>
			<path class="st4" d="M611.2,407.7"/>
		</g>
	</g>
	<g>
		<path class="st4" d="M410.6,332.8l-45.4,4.8c-1,0.1-2.1-0.3-2.9-1l-2.1-2c-2.5-2.3-1.3-6.6,1.9-6.9l45.4-4.8c1-0.1,2.1,0.3,2.9,1
			l2.1,2C415,328.2,413.8,332.5,410.6,332.8z"/>
		<path class="st4" d="M369.9,328.7L328,311.9c-1-0.4-2.1-0.3-3.2,0.3l-2.8,1.5c-3.2,1.7-3.5,6.4-0.6,7.5l41.9,16.8
			c1,0.4,2.1,0.3,3.2-0.3l2.8-1.5C372.5,334.5,372.8,329.9,369.9,328.7z"/>
		<path class="st4" d="M364.4,327.5l-42.5,15.3c-1,0.4-1.7,1.2-2,2.2l-0.8,2.9c-0.9,3.3,2.4,6.8,5.4,5.7l42.5-15.3
			c1-0.4,1.7-1.2,2-2.2l0.8-2.9C370.8,329.9,367.4,326.4,364.4,327.5z"/>
		<path class="st4" d="M405.3,353.8l-37.4-24.1c-0.9-0.6-2-0.7-3.2-0.3l-3,1c-3.5,1.1-4.8,5.6-2.2,7.3l37.4,24.1
			c0.9,0.6,2,0.7,3.2,0.3l3-1C406.6,359.9,407.9,355.5,405.3,353.8z"/>
		<path class="st4" d="M365,337.9L365,337.9c-3.8,0-6.9-3.1-6.9-6.9v-65h13.8v65C371.9,334.9,368.8,337.9,365,337.9z"/>
		<path class="st4" d="M367.5,250.4l-2.4-73.3c-0.1-2.5,2.6-4.4,5.2-3.6l50.7,14.8c1.6,0.5,2.8,1.8,2.8,3.4l2.4,73.3
			c0.1,2.5-2.6,4.4-5.2,3.6l-50.7-14.8C368.6,253.3,367.5,252,367.5,250.4z"/>
		<path class="st4" d="M369.7,299.4l-60.4-17.7c-1.4-0.4-1.5-2.1-0.3-2.7l50.5-24.5c0.4-0.2,0.8-0.2,1.3-0.1l60.4,17.7
			c1.4,0.4,1.5,2.1,0.3,2.7L371,299.3C370.6,299.5,370.1,299.6,369.7,299.4z"/>
		<rect x="386.8" y="254.4" class="st4" width="6.7" height="13.3"/>
		<path class="st4" d="M364.7,245.2l-2-62.8c-0.1-2.2,2.2-3.8,4.5-3.1l43.5,12.7c1.4,0.4,2.4,1.6,2.4,2.9l2,62.8
			c0.1,2.2-2.2,3.8-4.5,3.1l-43.5-12.7C365.7,247.7,364.8,246.6,364.7,245.2z"/>
		<path class="st4" d="M333.6,283.5c-15.4,10.5-21.2,30.8-27.2,23.3c-6-7.5,7.6-24.7,23-35.1s26.8-10.2,32.9-2.8
			C368.4,276.5,349.1,273.1,333.6,283.5z"/>
		<path class="st4" d="M349.5,295.3c-6.5,12.3,1.2,29.7-8.4,25.5c-9.7-4.3-8.8-21.3-2.4-33.6c6.5-12.3,16.1-15.1,25.8-10.8
			C374.2,280.6,356,283,349.5,295.3z"/>
		<path class="st4" d="M345,322.5c-4.8,7.8-15.6,2.6-16.2,2.3c-0.9-0.4-8.5-4.4-3.7-12.2c4.8-7.8,12.2-5.3,14.5-4.2
			C341.1,309.1,349.9,314.7,345,322.5z"/>
		<path class="st4" d="M313.7,306.4c-4.8,7.8-15.6,2.6-16.2,2.3c-0.9-0.4-8.5-4.4-3.7-12.2s12.2-5.3,14.5-4.2
			C309.8,293,318.5,298.6,313.7,306.4z"/>
		<path class="st4" d="M348.5,251.3c-0.4,11.2-2.7,20.2-13.1,19.8s-2.8-9.3-2.3-20.5s-6.5-20.5,3.9-20.1
			C347.3,230.9,348.9,240.1,348.5,251.3z"/>
		<path class="st4" d="M372.9,265.6c0,14.1-12.9,23.2-28.3,18.9c-15.2-4.3-8.8-11-8.8-25.1c0-14.1-8.9-34.8,7.2-34.8
			C359.2,224.6,372.9,251.5,372.9,265.6z"/>
		<path class="st4" d="M361.2,212.8c0,14-15.2,20.4-30.5,20.4s-25.2-6.3-25.2-20.2s11.3-27,26.6-27S361.2,198.9,361.2,212.8z"/>
		<path class="st4" d="M308,206.3c0,0.1,0,0.2-0.1,0.3c-1.1,5.5,1.6,10.6,6.1,11.5c4.5,0.9,8.1,0,9.2-5.5c0.3-1.4,0.4-2.9,0.3-4.4
			C318.4,207.7,313.2,207.1,308,206.3z"/>
		<path class="st4" d="M355.3,209.9c-2.1,0.2-4.2,0.2-6.3,0.1c-5.8-0.2-11.6-0.6-17.4-1.1c-0.4,1.4-0.7,2.9-0.8,4.3
			c-0.3,6.3,4.6,8.1,11.5,8.5c6.9,0.4,12.8-4.4,13.1-10.7C355.3,210.6,355.3,210.2,355.3,209.9z"/>
		<path class="st4" d="M315,207.2c-0.2,0.8-0.4,1.9-0.6,2.8c-0.4,1.8-0.5,3.7-0.5,5.5s0.6,3.4,1.5-0.2c0.8-3.4,1-4.4,1.9-7.9
			C316.5,207.4,315.8,207.3,315,207.2z"/>
		<path class="st4" d="M336.4,209.3c-0.2,1-0.4,2.2-0.7,3.3c-0.3,1.7-0.4,3.5-0.3,5.2s0.9,3.2,1.7-0.1c0.9-3.6,1-4.1,2.2-8.2
			C338.2,209.4,337.3,209.3,336.4,209.3z"/>
		<path class="st4" d="M347.1,225.2c0,0,7.1,2.9,9.4,11.9c0,0-3.9-9.3-9.4-10.9C347.1,226.3,346.2,225.9,347.1,225.2z"/>
		<path class="st4" d="M346.5,227.5c0,0,5.5,5,4.1,14.2c0,0,0.1-9.9-4.5-13.2C346.1,228.4,345.4,227.7,346.5,227.5z"/>
		<polyline class="st4" points="184.3,290 184.3,391.3 174.9,387.9 174.9,286.5 		"/>
		<polyline class="st4" points="397.9,297.1 397.9,398.1 388.9,402.7 390.8,300.9 		"/>
		<polygon class="st4" points="317.5,339.8 317.2,439.8 308.5,436.4 308.5,336.3 		"/>
		<polygon class="st4" points="326.7,335 326.7,434.9 317.2,439.8 317.5,339.8 		"/>
		<path class="st4" d="M184.3,391.3"/>
		<polygon class="st4" points="382.4,301.1 381.1,399.8 389,402.7 391,299.3 		"/>
		<polygon class="st4" points="191.6,289.9 191.6,387.2 184.3,391.3 184.3,290 		"/>
		<polygon class="st4" points="255.5,242.7 255.5,354.9 263.2,350.4 262.1,246.2 		"/>
		<polygon class="st4" points="247.1,245.6 246,351.5 255.5,354.9 255.5,241.3 		"/>
		<polygon class="st4" points="167.3,283.4 167.3,286.9 318.4,340.2 403.4,297.5 403.4,293.6 318,335.2 		"/>
		<polygon class="st4" points="403.4,293.6 252.7,241.7 167.3,283.4 318,335.2 		"/>
		<path class="st4" d="M306.7,284.5l-38.7-14.1c-1-0.4-2.2-0.3-3.2,0.2l-18.4,9.5c-2.9,1.5-2.6,5.5,0.4,6.7l38.7,14.1
			c1,0.4,2.2,0.3,3.2-0.2l18.4-9.5C310.1,289.6,309.8,285.6,306.7,284.5z"/>
		<path class="st4" d="M319.8,294.8l-78.5-29.1c-2.3-0.9-3.8-3-3.8-5.4l-0.1-48.1c0-4.1,4.2-6.8,8.1-5.4l78.5,29.1
			c2.3,0.9,3.8,3,3.8,5.4l0.1,48.1C328,293.5,323.7,296.3,319.8,294.8z"/>
		<path class="st4" d="M260,270.4l-1.1-0.4c-0.5-0.2-0.8-0.6-0.8-1l0-12.1c0-0.8,0.8-1.3,1.6-1.1l1.1,0.4c0.5,0.2,0.8,0.6,0.8,1
			l0,12.1C261.6,270.1,260.8,270.7,260,270.4z"/>
		<path class="st4" d="M265.1,272.5l-1.1-0.4c-0.5-0.2-0.8-0.6-0.8-1l0-12.1c0-0.8,0.8-1.3,1.6-1l1.1,0.4c0.5,0.2,0.8,0.6,0.8,1
			l0,12.1C266.7,272.3,265.8,272.8,265.1,272.5z"/>
		<path class="st4" d="M270.2,274.3l-1.1-0.4c-0.5-0.2-0.8-0.6-0.8-1l0-12.1c0-0.8,0.8-1.3,1.6-1l1.1,0.4c0.5,0.2,0.8,0.6,0.8,1
			l0,12.1C271.8,274,271,274.6,270.2,274.3z"/>
		<path class="st4" d="M275.3,276.5l-1.1-0.4c-0.5-0.2-0.8-0.6-0.8-1l0-12.1c0-0.8,0.8-1.3,1.6-1l1.1,0.4c0.5,0.2,0.8,0.6,0.8,1
			l0,12.1C276.9,276.2,276,276.7,275.3,276.5z"/>
		<path class="st4" d="M280.4,278.6l-1.1-0.4c-0.5-0.2-0.8-0.6-0.8-1l0-12.1c0-0.8,0.8-1.3,1.6-1l1.1,0.4c0.5,0.2,0.8,0.6,0.8,1
			l0,12.1C282,278.3,281.1,278.9,280.4,278.6z"/>
		<path class="st4" d="M285.5,280.4l-1.1-0.4c-0.5-0.2-0.8-0.6-0.8-1l0-12.1c0-0.8,0.8-1.3,1.6-1l1.1,0.4c0.5,0.2,0.8,0.6,0.8,1
			l0,12.1C287.1,280.1,286.2,280.7,285.5,280.4z"/>
		<path class="st4" d="M290.6,282.5l-1.1-0.4c-0.5-0.2-0.8-0.6-0.8-1l0-12.1c0-0.8,0.8-1.3,1.6-1l1.1,0.4c0.5,0.2,0.8,0.6,0.8,1
			l0,12.1C292.2,282.2,291.3,282.8,290.6,282.5z"/>
		<path class="st4" d="M362.8,285.2c4.9,4.5,3.2,10-3.1,12.1c-7,2.4-10.9,3.8-17.7,0.4c-6-3-4.2-11,2.2-13.1
			C350.5,282.4,357.5,280.4,362.8,285.2z"/>
		<path class="st4" d="M344.5,289.5c-1.8,1.3-2.6,3-2,3.9c0.7,0.9,1.4-1,3.2-2.3c1.8-1.3,3.9-1.5,3.2-2.3
			C348.2,287.9,346.3,288.3,344.5,289.5z"/>
		<path class="st4" d="M366.3,288.7c-1.7,4.8-6.2,2.8-13.2,2.8s-12.2-3.5-12.2-7.5c0-5.1,5.7-9.2,12.7-9.2S369,281.1,366.3,288.7z"
			/>
		<path class="st4" d="M370.9,257.5c1.7,13.5-4.9,24.2-7,24.1c-20.7-1.5-1.1-11-2.8-24.5c-1.7-13.5-5.5-24.2-3.4-24.4
			C359.8,232.4,369.2,244,370.9,257.5z"/>
		<path class="st4" d="M342.9,295.6c-0.8,0-1.7,0.1-2.5,0.1c-5.3,0.3-10.8,16.9-12.5,18.8c-5.9,6.6-20.3,6.9-36.6,1.7
			c-23.6-7.6-9.4-30.2,8.7-33.6"/>
		<g>
			<path class="st4" d="M279.6,307"/>
		</g>
	</g>
	<g>
		<path class="st4" d="M141.2,260l-35.8,4c-0.8,0.1-1.7-0.2-2.3-0.8l-1.7-1.7c-1.9-1.9-1-5.4,1.5-5.7l35.8-3.9
			c0.8-0.1,1.7,0.2,2.3,0.8l1.7,1.7C144.7,256.2,143.8,259.7,141.2,260z"/>
		<path class="st4" d="M109.1,256.6l-33-13.8c-0.8-0.3-1.7-0.2-2.5,0.2l-2.2,1.2c-2.5,1.4-2.8,5.2-0.5,6.2l33,13.8
			c0.8,0.3,1.7,0.2,2.5-0.2l2.2-1.2C111.2,261.4,111.4,257.6,109.1,256.6z"/>
		<path class="st4" d="M104.8,255.6l-33.6,12.6c-0.8,0.3-1.4,1-1.6,1.9l-0.6,2.3c-0.7,2.7,1.9,5.5,4.3,4.7l33.6-12.6
			c0.8-0.3,1.4-1,1.6-1.9l0.6-2.3C109.8,257.6,107.2,254.7,104.8,255.6z"/>
		<path class="st4" d="M137,277.2l-29.5-19.8c-0.7-0.5-1.6-0.5-2.5-0.2l-2.4,0.8c-2.8,0.9-3.8,4.6-1.7,6l29.5,19.8
			c0.7,0.5,1.6,0.5,2.5,0.2l2.4-0.8C138.1,282.3,139.1,278.6,137,277.2z"/>
		<path class="st4" d="M105.3,264.2L105.3,264.2c-3,0-5.4-2.4-5.4-5.4v-53.6h10.9v53.6C110.7,261.8,108.3,264.2,105.3,264.2z"/>
		<path class="st4" d="M107.2,192.4l-1.8-60.2c-0.1-2.1,2.1-3.6,4.1-3l40,12.1c1.3,0.4,2.2,1.5,2.2,2.8l1.9,60.2
			c0.1,2.1-2.1,3.6-4.1,3l-40-12.1C108.1,194.8,107.2,193.7,107.2,192.4z"/>
		<path class="st4" d="M109,232.6l-47.7-14.5c-1.1-0.3-1.2-1.7-0.2-2.2l39.9-20.1c0.3-0.1,0.7-0.2,1-0.1l47.7,14.5
			c1.1,0.3,1.2,1.7,0.2,2.2L110,232.5C109.7,232.7,109.3,232.7,109,232.6z"/>
		<rect x="122.4" y="195.6" class="st4" width="5.3" height="10.9"/>
		<path class="st4" d="M105.1,188.1l-1.6-51.6c-0.1-1.8,1.8-3.1,3.5-2.5l34.3,10.4c1.1,0.3,1.9,1.3,1.9,2.4l1.6,51.6
			c0.1,1.8-1.8,3.1-3.5,2.5l-34.3-10.4C105.8,190.2,105.1,189.2,105.1,188.1z"/>
		<path class="st4" d="M80.5,219.6c-12.2,8.6-16.7,25.3-21.5,19.1s6-20.2,18.2-28.8s21.1-8.4,25.9-2.2
			C107.9,213.7,92.7,211,80.5,219.6z"/>
		<path class="st4" d="M93.1,229.2c-5.1,10.1,1,24.4-6.6,20.9s-7-17.5-1.8-27.6c5.1-10.1,12.7-12.4,20.3-8.9
			C112.5,217.2,98.2,219.2,93.1,229.2z"/>
		<path class="st4" d="M89.5,251.5c-3.8,6.4-12.3,2.1-12.8,1.9c-0.7-0.4-6.7-3.6-2.9-10c3.8-6.4,9.6-4.4,11.4-3.5
			C86.4,240.5,93.3,245.1,89.5,251.5z"/>
		<path class="st4" d="M64.8,238.3c-3.8,6.4-12.3,2.1-12.8,1.9c-0.7-0.4-6.7-3.6-2.9-10c3.8-6.4,9.6-4.4,11.4-3.5
			C61.7,227.3,68.6,231.9,64.8,238.3z"/>
		<path class="st4" d="M92.2,193.1c-0.3,9.2-2.1,16.5-10.3,16.2c-8.2-0.3-2.2-7.6-1.8-16.8s-5.2-16.8,3-16.5
			C91.3,176.4,92.6,183.9,92.2,193.1z"/>
		<path class="st4" d="M111.5,204.9c0,11.6-10.2,19-22.3,15.5c-12-3.5-6.9-9.1-6.9-20.6s-7-28.5,5.7-28.5S111.5,193.3,111.5,204.9z"
			/>
		<path class="st4" d="M102.2,161.5c0,11.4-12,16.7-24.1,16.7s-19.9-5.1-19.9-16.6s8.9-22.2,21-22.2S102.2,150.1,102.2,161.5z"/>
		<path class="st4" d="M60.3,156.2c0,0.1,0,0.1,0,0.2c-0.9,4.5,1.3,8.7,4.9,9.4c3.6,0.7,6.4,0,7.2-4.5c0.2-1.1,0.3-2.3,0.2-3.6
			C68.5,157.3,64.4,156.8,60.3,156.2z"/>
		<path class="st4" d="M97.6,159.1c-1.6,0.1-3.3,0.2-5,0.1c-4.6-0.2-9.2-0.5-13.8-0.9c-0.3,1.2-0.6,2.4-0.6,3.5
			c-0.2,5.2,3.6,6.7,9.1,7s10.1-3.6,10.3-8.8C97.6,159.7,97.6,159.4,97.6,159.1z"/>
		<path class="st4" d="M65.8,156.9c-0.1,0.7-0.3,1.5-0.5,2.3c-0.3,1.5-0.4,3-0.4,4.5c0,1.5,0.5,2.8,1.2-0.1c0.6-2.8,0.8-3.6,1.5-6.4
			C67,157.1,66.5,157,65.8,156.9z"/>
		<path class="st4" d="M82.7,158.6c-0.2,0.8-0.3,1.8-0.5,2.7c-0.3,1.4-0.3,2.9-0.3,4.3c0.1,1.4,0.7,2.7,1.3-0.1
			c0.7-2.9,0.8-3.4,1.7-6.7C84.2,158.8,83.4,158.6,82.7,158.6z"/>
		<path class="st4" d="M91.2,171.7c0,0,5.6,2.4,7.4,9.8c0,0-3.1-7.6-7.4-8.9C91.2,172.6,90.4,172.2,91.2,171.7z"/>
		<path class="st4" d="M90.7,173.6c0,0,4.3,4.1,3.2,11.6c0,0,0.1-8.1-3.5-10.9C90.4,174.3,89.8,173.7,90.7,173.6z"/>
		<polyline class="st4" points="-37.3,224.9 -37.3,308 -44.7,305.2 -44.7,222 		"/>
		<polyline class="st4" points="131.2,230.7 131.2,313.6 124.1,317.3 125.6,233.8 		"/>
		<polygon class="st4" points="67.8,265.8 67.6,347.8 60.7,345 60.7,262.8 		"/>
		<polygon class="st4" points="75,261.8 75,343.8 67.6,347.8 67.8,265.8 		"/>
		<path class="st4" d="M-37.3,308"/>
		<polygon class="st4" points="119,234 118,315 124.2,317.3 125.8,232.5 		"/>
		<polygon class="st4" points="-31.5,224.8 -31.5,304.6 -37.3,308 -37.3,224.9 		"/>
		<polygon class="st4" points="18.9,186 18.9,278.1 25,274.5 24.1,188.9 		"/>
		<polygon class="st4" points="12.3,188.5 11.4,275.3 18.9,278.1 18.9,184.9 		"/>
		<polygon class="st4" points="-50.7,219.4 -50.7,222.3 68.5,266.1 135.6,231.1 135.6,227.8 68.2,262 		"/>
		<polygon class="st4" points="135.6,227.8 16.7,185.2 -50.7,219.4 68.2,262 		"/>
		<path class="st4" d="M59.3,220.3l-30.5-11.6c-0.8-0.3-1.7-0.2-2.5,0.2l-14.5,7.8c-2.3,1.2-2.1,4.6,0.4,5.5l30.5,11.6
			c0.8,0.3,1.7,0.2,2.5-0.2l14.5-7.8C61.9,224.6,61.7,221.2,59.3,220.3z"/>
		<path class="st4" d="M69.6,228.8L7.7,204.9c-1.8-0.7-3-2.4-3-4.4L4.5,161c0-3.3,3.3-5.6,6.4-4.4l61.9,23.9c1.8,0.7,3,2.4,3,4.4
			l0.1,39.5C76.1,227.7,72.7,230,69.6,228.8z"/>
		<path class="st4" d="M22.4,208.8l-0.8-0.3c-0.4-0.1-0.6-0.5-0.6-0.9l0-9.9c0-0.6,0.6-1.1,1.3-0.9l0.8,0.3c0.4,0.1,0.6,0.5,0.6,0.9
			l0,9.9C23.7,208.6,23,209,22.4,208.8z"/>
		<path class="st4" d="M26.4,210.5l-0.8-0.3c-0.4-0.1-0.6-0.5-0.6-0.9l0-9.9c0-0.6,0.6-1.1,1.3-0.9l0.8,0.3c0.4,0.1,0.6,0.5,0.6,0.9
			l0,9.9C27.7,210.3,27,210.8,26.4,210.5z"/>
		<path class="st4" d="M30.5,212l-0.8-0.3c-0.4-0.1-0.6-0.5-0.6-0.9l0-9.9c0-0.6,0.6-1.1,1.3-0.9l0.8,0.3c0.4,0.1,0.6,0.5,0.6,0.9
			l0,9.9C31.7,211.8,31.1,212.2,30.5,212z"/>
		<path class="st4" d="M34.5,213.8l-0.8-0.3c-0.4-0.1-0.6-0.5-0.6-0.9l0-9.9c0-0.6,0.7-1.1,1.3-0.9l0.8,0.3c0.4,0.1,0.6,0.5,0.6,0.9
			l0,9.9C35.7,213.5,35.1,214,34.5,213.8z"/>
		<path class="st4" d="M38.5,215.5l-0.8-0.3c-0.4-0.1-0.6-0.5-0.6-0.9l0-9.9c0-0.6,0.7-1.1,1.3-0.9l0.8,0.3c0.4,0.1,0.6,0.5,0.6,0.9
			l0,9.9C39.8,215.3,39.1,215.7,38.5,215.5z"/>
		<path class="st4" d="M42.5,217l-0.8-0.3c-0.4-0.1-0.6-0.5-0.6-0.9l0-9.9c0-0.6,0.7-1.1,1.3-0.9l0.8,0.3c0.4,0.1,0.6,0.5,0.6,0.9
			l0,9.9C43.8,216.7,43.2,217.2,42.5,217z"/>
		<path class="st4" d="M46.5,218.7l-0.8-0.3c-0.4-0.1-0.6-0.5-0.6-0.9l0-9.9c0-0.6,0.7-1.1,1.3-0.9l0.8,0.3c0.4,0.1,0.6,0.5,0.6,0.9
			l0,9.9C47.8,218.5,47.2,218.9,46.5,218.7z"/>
		<path class="st4" d="M103.6,220.9c3.8,3.7,2.6,8.2-2.4,9.9c-5.5,1.9-8.6,3.1-14,0.3c-4.7-2.5-3.3-9,1.7-10.8
			C93.9,218.6,99.3,216.9,103.6,220.9z"/>
		<path class="st4" d="M89.1,224.5c-1.4,1.1-2.1,2.5-1.6,3.2c0.5,0.7,1.1-0.9,2.5-1.9s3.1-1.2,2.5-1.9
			C92,223.2,90.5,223.4,89.1,224.5z"/>
		<path class="st4" d="M106.3,223.8c-1.3,4-4.9,2.3-10.4,2.3s-9.6-2.9-9.6-6.2c0-4.2,4.5-7.6,10-7.6
			C101.8,212.4,108.4,217.5,106.3,223.8z"/>
		<path class="st4" d="M109.9,198.2c1.3,11.1-3.8,19.9-5.6,19.8c-16.3-1.3-0.9-9-2.2-20.1s-4.4-19.8-2.7-20.1
			C101.2,177.6,108.6,187.1,109.9,198.2z"/>
		<path class="st4" d="M87.8,229.5c-0.7,0-1.3,0.1-2,0.1c-4.2,0.2-8.5,13.9-9.8,15.4c-4.7,5.4-16,5.7-28.9,1.4
			c-18.6-6.2-7.4-24.8,6.9-27.6"/>
		<g>
			<path class="st4" d="M37.9,238.8"/>
		</g>
	</g>
	<g>
		<path class="st4" d="M586.1,224.2l-34.8,3.6c-0.8,0.1-1.6-0.2-2.2-0.8l-1.6-1.5c-1.9-1.7-1-4.9,1.5-5.1l34.8-3.6
			c0.8-0.1,1.6,0.2,2.2,0.8l1.6,1.5C589.5,220.8,588.6,223.9,586.1,224.2z"/>
		<path class="st4" d="M555,221.1l-32-12.5c-0.7-0.3-1.6-0.2-2.4,0.2l-2.1,1.1c-2.4,1.3-2.7,4.7-0.5,5.6l32,12.5
			c0.7,0.3,1.6,0.2,2.4-0.2l2.1-1.1C557,225.5,557.2,222,555,221.1z"/>
		<path class="st4" d="M550.8,220.2l-32.6,11.4c-0.8,0.3-1.3,0.9-1.5,1.7l-0.6,2.1c-0.7,2.4,1.9,5,4.2,4.2l32.6-11.4
			c0.8-0.3,1.3-0.9,1.5-1.7l0.6-2.1C555.7,222,553.1,219.4,550.8,220.2z"/>
		<path class="st4" d="M582.1,239.8l-28.6-17.9c-0.7-0.4-1.5-0.5-2.4-0.2l-2.3,0.7c-2.7,0.8-3.7,4.1-1.7,5.4l28.6,17.9
			c0.7,0.4,1.5,0.5,2.4,0.2l2.3-0.7C583.1,244.4,584.1,241,582.1,239.8z"/>
		<path class="st4" d="M551.2,228L551.2,228c-2.9,0-5.3-2.4-5.3-5.3v-48.2h10.5v48.1C556.5,225.6,554.2,228,551.2,228z"/>
		<path class="st4" d="M553.1,163l-1.8-54.5c-0.1-1.9,2-3.3,4-2.7l38.8,11c1.2,0.3,2.1,1.4,2.1,2.5l1.8,54.5c0.1,1.9-2,3.3-4,2.7
			l-38.8-11C554,165.2,553.2,164.2,553.1,163z"/>
		<path class="st4" d="M554.8,199.4l-46.3-13.1c-1-0.3-1.2-1.6-0.2-2l38.7-18.2c0.3-0.1,0.7-0.2,1-0.1l46.3,13.1
			c1,0.3,1.2,1.6,0.2,2l-38.7,18.2C555.5,199.5,555.2,199.5,554.8,199.4z"/>
		<rect x="567.9" y="165.9" class="st4" width="5.1" height="9.9"/>
		<path class="st4" d="M551,159.1l-1.5-46.7c0-1.6,1.7-2.8,3.4-2.3l33.3,9.4c1.1,0.3,1.8,1.2,1.8,2.2l1.5,46.7
			c0,1.6-1.7,2.8-3.4,2.3l-33.3-9.4C551.8,161,551.1,160.1,551,159.1z"/>
		<path class="st4" d="M527.2,187.6c-11.8,7.8-16.2,22.9-20.9,17.3c-4.6-5.6,5.8-18.3,17.6-26.1s20.5-7.6,25.2-2
			S539.1,179.8,527.2,187.6z"/>
		<path class="st4" d="M539.4,196.4c-5,9.1,1,22.1-6.4,18.9c-7.4-3.2-6.8-15.9-1.8-25s12.3-11.2,19.7-8
			C558.3,185.4,544.3,187.2,539.4,196.4z"/>
		<path class="st4" d="M536,216.5c-3.7,5.8-11.9,1.9-12.4,1.7c-0.7-0.3-6.5-3.3-2.8-9.1c3.7-5.8,9.3-3.9,11.1-3.1
			C533,206.6,539.7,210.8,536,216.5z"/>
		<path class="st4" d="M512,204.6c-3.7,5.8-11.9,1.9-12.4,1.7c-0.7-0.3-6.5-3.3-2.8-9.1c3.7-5.8,9.3-3.9,11.1-3.1
			C509,194.6,515.7,198.8,512,204.6z"/>
		<path class="st4" d="M538.6,163.7c-0.3,8.3-2.1,15-10,14.7s-2.1-6.9-1.8-15.2s-5-15.2,3-14.9C537.7,148.5,538.9,155.4,538.6,163.7
			z"/>
		<path class="st4" d="M557.3,174.3c0,10.5-9.9,17.2-21.7,14c-11.6-3.2-6.7-8.2-6.7-18.6s-6.8-25.8,5.5-25.8
			C546.8,143.9,557.3,163.8,557.3,174.3z"/>
		<path class="st4" d="M548.3,135.1c0,10.4-11.7,15.1-23.3,15.1c-11.7,0-19.3-4.6-19.3-15s8.7-20.1,20.4-20.1
			C537.7,115.2,548.3,124.7,548.3,135.1z"/>
		<path class="st4" d="M507.6,130.2c0,0.1,0,0.1,0,0.2c-0.9,4.1,1.2,7.9,4.7,8.5c3.5,0.6,6.2,0,7-4.1c0.2-1,0.3-2.1,0.2-3.2
			C515.5,131.3,511.5,130.8,507.6,130.2z"/>
		<path class="st4" d="M543.8,132.9c-1.6,0.1-3.2,0.2-4.8,0.1c-4.4-0.2-8.9-0.5-13.3-0.8c-0.3,1.1-0.5,2.1-0.6,3.2
			c-0.2,4.7,3.5,6,8.8,6.3s9.8-3.2,10-7.9C543.8,133.4,543.8,133.2,543.8,132.9z"/>
		<path class="st4" d="M513,130.9c-0.1,0.6-0.3,1.4-0.5,2.1c-0.3,1.4-0.4,2.8-0.4,4.1s0.5,2.5,1.1-0.1c0.6-2.6,0.8-3.3,1.5-5.8
			C514.1,131.1,513.6,131,513,130.9z"/>
		<path class="st4" d="M529.3,132.5c-0.2,0.7-0.3,1.6-0.5,2.4c-0.3,1.3-0.3,2.6-0.3,3.9c0,1.3,0.7,2.4,1.3-0.1
			c0.7-2.6,0.7-3.1,1.7-6.1C530.8,132.6,530,132.4,529.3,132.5z"/>
		<path class="st4" d="M537.6,144.3c0,0,5.4,2.1,7.2,8.9c0,0-3-6.9-7.2-8.1C537.6,145.1,536.8,144.8,537.6,144.3z"/>
		<path class="st4" d="M537.1,146c0,0,4.2,3.7,3.1,10.5c0,0,0-7.3-3.4-9.8C536.8,146.7,536.2,146.1,537.1,146z"/>
		<polyline class="st4" points="412.9,192.4 412.9,267.7 405.6,265.1 405.6,189.8 		"/>
		<polyline class="st4" points="576.4,197.7 576.4,272.7 569.5,276.1 571,200.5 		"/>
		<polygon class="st4" points="514.9,229.4 514.6,303.7 508,301.1 508,226.8 		"/>
		<polygon class="st4" points="521.9,225.9 521.9,300 514.6,303.7 514.9,229.4 		"/>
		<path class="st4" d="M412.9,267.7"/>
		<polygon class="st4" points="564.6,200.7 563.6,274 569.6,276.1 571.2,199.3 		"/>
		<polygon class="st4" points="418.5,192.3 418.5,264.6 412.9,267.7 412.9,192.4 		"/>
		<polygon class="st4" points="467.4,157.2 467.4,240.6 473.3,237.3 472.5,159.9 		"/>
		<polygon class="st4" points="461,159.5 460.1,238.1 467.4,240.6 467.4,156.2 		"/>
		<polygon class="st4" points="399.9,187.5 399.9,190.1 515.5,229.7 580.7,198 580.7,195.1 515.3,226 		"/>
		<polygon class="st4" points="580.7,195.1 465.2,156.6 399.9,187.5 515.3,226 		"/>
		<path class="st4" d="M506.6,188.3L477,177.8c-0.8-0.3-1.7-0.2-2.4,0.1l-14.1,7c-2.2,1.1-2,4.1,0.4,4.9l29.6,10.5
			c0.8,0.3,1.7,0.2,2.4-0.1l14.1-7C509.2,192.1,509,189.1,506.6,188.3z"/>
		<path class="st4" d="M516.6,196l-60.1-21.6c-1.8-0.6-2.9-2.2-2.9-4l-0.1-35.8c0-3,3.2-5.1,6.2-4l60.1,21.6c1.8,0.6,2.9,2.2,2.9,4
			l0.1,35.8C522.9,195,519.6,197.1,516.6,196z"/>
		<path class="st4" d="M470.8,177.9l-0.8-0.3c-0.4-0.1-0.6-0.4-0.6-0.8l0-9c0-0.6,0.6-1,1.2-0.8l0.8,0.3c0.3,0.1,0.6,0.4,0.6,0.8
			l0,9C472,177.6,471.4,178.1,470.8,177.9z"/>
		<path class="st4" d="M474.7,179.4l-0.8-0.3c-0.4-0.1-0.6-0.4-0.6-0.8l0-9c0-0.6,0.6-1,1.2-0.8l0.8,0.3c0.3,0.1,0.6,0.4,0.6,0.8
			l0,9C475.9,179.2,475.3,179.6,474.7,179.4z"/>
		<path class="st4" d="M478.6,180.8l-0.8-0.3c-0.4-0.1-0.6-0.4-0.6-0.8l0-9c0-0.6,0.6-1,1.2-0.8l0.8,0.3c0.3,0.1,0.6,0.4,0.6,0.8
			l0,9C479.9,180.6,479.2,181,478.6,180.8z"/>
		<path class="st4" d="M482.5,182.4l-0.8-0.3c-0.4-0.1-0.6-0.4-0.6-0.8l0-9c0-0.6,0.6-1,1.2-0.8l0.8,0.3c0.3,0.1,0.6,0.4,0.6,0.8
			l0,9C483.8,182.1,483.1,182.6,482.5,182.4z"/>
		<path class="st4" d="M486.4,183.9l-0.8-0.3c-0.4-0.1-0.6-0.4-0.6-0.8l0-9c0-0.6,0.6-1,1.2-0.8l0.8,0.3c0.3,0.1,0.6,0.4,0.6,0.8
			l0,9C487.6,183.7,487,184.1,486.4,183.9z"/>
		<path class="st4" d="M490.4,185.2l-0.8-0.3c-0.4-0.1-0.6-0.4-0.6-0.8l0-9c0-0.6,0.6-1,1.2-0.8l0.8,0.3c0.3,0.1,0.6,0.4,0.6,0.8
			l0,9C491.6,185.1,490.9,185.5,490.4,185.2z"/>
		<path class="st4" d="M494.2,186.8l-0.8-0.3c-0.4-0.1-0.6-0.4-0.6-0.8l0-9c0-0.6,0.6-1,1.2-0.8l0.8,0.3c0.3,0.1,0.6,0.4,0.6,0.8
			l0,9C495.5,186.6,494.8,187.1,494.2,186.8z"/>
		<path class="st4" d="M549.6,188.9c3.7,3.3,2.5,7.4-2.4,9c-5.3,1.8-8.3,2.8-13.6,0.3c-4.6-2.2-3.2-8.2,1.7-9.8
			S545.5,185.2,549.6,188.9z"/>
		<path class="st4" d="M535.5,192.1c-1.3,0.9-2,2.2-1.5,2.9s1.1-0.8,2.5-1.7c1.3-0.9,3-1.1,2.5-1.7
			C538.4,190.9,536.9,191.1,535.5,192.1z"/>
		<path class="st4" d="M552.2,191.4c-1.3,3.6-4.7,2.1-10.1,2.1c-5.4,0-9.3-2.6-9.3-5.6c0-3.8,4.4-6.9,9.8-6.9
			S554.3,185.8,552.2,191.4z"/>
		<path class="st4" d="M555.7,168.3c1.3,10-3.7,18-5.4,17.9c-15.8-1.1-0.9-8.2-2.2-18.2s-4.2-17.9-2.6-18.1
			C547.3,149.6,554.4,158.2,555.7,168.3z"/>
		<path class="st4" d="M534.3,196.6c-0.6,0-1.3,0.1-1.9,0.1c-4.1,0.2-8.2,12.6-9.5,13.9c-4.5,4.9-15.5,5.1-28,1.3
			c-18.1-5.6-7.2-22.4,6.7-25"/>
		<g>
			<path class="st4" d="M485.9,205"/>
		</g>
	</g>
	<g>
		<path class="st4" d="M335.6,144.3l-24.8,2.7c-0.6,0.1-1.2-0.1-1.6-0.6l-1.2-1.1c-1.4-1.3-0.7-3.7,1-3.9l24.8-2.7
			c0.6-0.1,1.2,0.1,1.6,0.6l1.2,1.1C338,141.7,337.4,144.1,335.6,144.3z"/>
		<path class="st4" d="M313.4,142l-22.9-9.6c-0.5-0.2-1.2-0.2-1.7,0.2l-1.5,0.9c-1.7,1-1.9,3.6-0.3,4.3l22.9,9.6
			c0.5,0.2,1.2,0.2,1.7-0.2l1.5-0.9C314.8,145.3,315,142.6,313.4,142z"/>
		<path class="st4" d="M310.4,141.3l-23.3,8.7c-0.5,0.2-0.9,0.7-1.1,1.3l-0.4,1.6c-0.5,1.9,1.3,3.9,3,3.2l23.3-8.7
			c0.5-0.2,0.9-0.7,1.1-1.3l0.4-1.6C313.9,142.6,312.1,140.6,310.4,141.3z"/>
		<path class="st4" d="M332.8,156.2l-20.4-13.7c-0.5-0.3-1.1-0.4-1.7-0.2l-1.7,0.6c-1.9,0.6-2.6,3.2-1.2,4.1l20.4,13.7
			c0.5,0.3,1.1,0.4,1.7,0.2l1.7-0.6C333.5,159.7,334.2,157.2,332.8,156.2z"/>
		<path class="st4" d="M310.7,147.2L310.7,147.2c-2.1,0-3.8-1.7-3.8-3.8v-37.1h7.5v37.2C314.5,145.5,312.8,147.2,310.7,147.2z"/>
		<path class="st4" d="M312.1,97.4l-1.3-41.7c0-1.4,1.4-2.5,2.9-2l27.7,8.4c0.9,0.3,1.5,1,1.5,1.9l1.3,41.7c0,1.4-1.4,2.5-2.9,2.1
			l-27.7-8.4C312.7,99.1,312.1,98.3,312.1,97.4z"/>
		<path class="st4" d="M313.3,125.3l-33-10.1c-0.8-0.2-0.8-1.2-0.1-1.6l27.6-13.9c0.2-0.1,0.5-0.1,0.7-0.1l33,10.1
			c0.8,0.2,0.8,1.2,0.1,1.6L314,125.2C313.8,125.4,313.5,125.4,313.3,125.3z"/>
		<rect x="322.6" y="99.7" class="st4" width="3.7" height="7.6"/>
		<path class="st4" d="M310.6,94.5l-1.1-35.7c0-1.2,1.2-2.1,2.5-1.8l23.8,7.2c0.8,0.2,1.3,0.9,1.3,1.7l1.1,35.7
			c0,1.2-1.2,2.1-2.5,1.8l-23.8-7.2C311.1,95.9,310.6,95.2,310.6,94.5z"/>
		<path class="st4" d="M293.6,116.3c-8.4,5.9-11.6,17.5-14.9,13.3c-3.3-4.2,4.2-14,12.6-20s14.6-5.8,18-1.6S302,110.3,293.6,116.3z"
			/>
		<path class="st4" d="M302.3,123c-3.5,7,0.7,16.9-4.6,14.5c-5.3-2.4-4.8-12.1-1.3-19.1s8.8-8.6,14.1-6.2
			C315.8,114.6,305.8,116,302.3,123z"/>
		<path class="st4" d="M299.8,138.4c-2.6,4.4-8.5,1.5-8.9,1.3c-0.5-0.2-4.7-2.5-2-6.9c2.6-4.4,6.7-3,7.9-2.4
			C297.7,130.8,302.5,134,299.8,138.4z"/>
		<path class="st4" d="M282.7,129.2c-2.6,4.4-8.5,1.5-8.9,1.3c-0.5-0.2-4.7-2.5-2-6.9s6.7-3,7.9-2.4
			C280.5,121.6,285.3,124.8,282.7,129.2z"/>
		<path class="st4" d="M301.7,97.9c-0.2,6.4-1.5,11.5-7.1,11.3s-1.5-5.3-1.3-11.7s-3.6-11.6,2.1-11.4S301.9,91.6,301.7,97.9z"/>
		<path class="st4" d="M315,106.1c0,8-7,13.2-15.5,10.7c-8.3-2.4-4.8-6.3-4.8-14.3s-4.9-19.8,4-19.8C307.5,82.8,315,98.1,315,106.1z
			"/>
		<path class="st4" d="M308.6,76.1c0,7.9-8.3,11.6-16.7,11.6c-8.3,0-13.8-3.6-13.8-11.5s6.2-15.4,14.5-15.4
			C301.1,60.8,308.6,68.1,308.6,76.1z"/>
		<path class="st4" d="M279.6,72.3c0,0.1,0,0.1,0,0.2c-0.6,3.1,0.9,6.1,3.4,6.5c2.5,0.5,4.4,0,5-3.1c0.1-0.8,0.2-1.6,0.2-2.5
			C285.2,73.1,282.4,72.8,279.6,72.3z"/>
		<path class="st4" d="M305.4,74.4c-1.1,0.1-2.3,0.1-3.5,0.1c-3.2-0.1-6.4-0.4-9.5-0.6c-0.2,0.8-0.4,1.6-0.4,2.4
			c-0.2,3.6,2.5,4.6,6.3,4.8c3.8,0.2,7-2.5,7.1-6.1C305.4,74.8,305.4,74.6,305.4,74.4z"/>
		<path class="st4" d="M283.4,72.9c-0.1,0.5-0.2,1.1-0.3,1.6c-0.2,1.1-0.3,2.1-0.3,3.1c0,1,0.4,1.9,0.8-0.1c0.4-2,0.5-2.5,1.1-4.5
			C284.2,73,283.8,72.9,283.4,72.9z"/>
		<path class="st4" d="M295.1,74c-0.1,0.6-0.2,1.2-0.4,1.9c-0.2,1-0.2,2-0.2,3s0.5,1.8,0.9-0.1c0.5-2,0.5-2.3,1.2-4.7
			C296.1,74.1,295.6,74,295.1,74z"/>
		<path class="st4" d="M301,83.1c0,0,3.9,1.6,5.1,6.8c0,0-2.1-5.3-5.1-6.2C301,83.7,300.4,83.5,301,83.1z"/>
		<path class="st4" d="M300.6,84.4c0,0,3,2.9,2.2,8.1c0,0,0-5.6-2.5-7.5C300.4,84.9,300,84.5,300.6,84.4z"/>
		<polyline class="st4" points="211.9,119.9 211.9,177.6 206.8,175.6 206.8,117.9 		"/>
		<polyline class="st4" points="328.7,124 328.7,181.4 323.8,184 324.8,126.2 		"/>
		<polygon class="st4" points="284.8,148.3 284.6,205.1 279.9,203.2 279.9,146.3 		"/>
		<polygon class="st4" points="289.8,145.6 289.8,202.4 284.6,205.1 284.8,148.3 		"/>
		<path class="st4" d="M211.9,177.6"/>
		<polygon class="st4" points="320.2,126.3 319.5,182.4 323.8,184 325,125.2 		"/>
		<polygon class="st4" points="216,119.9 216,175.2 211.9,177.6 211.9,119.9 		"/>
		<polygon class="st4" points="250.9,93 250.9,156.9 255.1,154.3 254.5,95.1 		"/>
		<polygon class="st4" points="246.3,94.7 245.7,154.9 250.9,156.9 250.9,92.3 		"/>
		<polygon class="st4" points="202.6,116.2 202.6,118.2 285.2,148.5 331.7,124.2 331.7,122 285,145.7 		"/>
		<polygon class="st4" points="331.7,122 249.3,92.5 202.6,116.2 285,145.7 		"/>
		<path class="st4" d="M278.9,116.8l-21.1-8c-0.6-0.2-1.2-0.2-1.7,0.1l-10,5.4c-1.6,0.8-1.4,3.2,0.2,3.8l21.1,8
			c0.6,0.2,1.2,0.2,1.7-0.1l10-5.4C280.7,119.7,280.5,117.4,278.9,116.8z"/>
		<path class="st4" d="M286,122.7l-42.9-16.5c-1.3-0.5-2.1-1.7-2.1-3.1l-0.1-27.4c0-2.3,2.3-3.9,4.4-3.1l42.9,16.5
			c1.3,0.5,2.1,1.7,2.1,3.1l0.1,27.4C290.5,121.9,288.2,123.5,286,122.7z"/>
		<path class="st4" d="M253.3,108.8l-0.6-0.2c-0.2-0.1-0.4-0.3-0.4-0.6l0-6.9c0-0.4,0.4-0.8,0.9-0.6l0.6,0.2
			c0.2,0.1,0.4,0.3,0.4,0.6l0,6.9C254.2,108.7,253.7,109,253.3,108.8z"/>
		<path class="st4" d="M256.1,110l-0.6-0.2c-0.2-0.1-0.4-0.3-0.4-0.6l0-6.9c0-0.4,0.4-0.8,0.9-0.6l0.6,0.2c0.2,0.1,0.4,0.3,0.4,0.6
			l0,6.9C257,109.9,256.5,110.2,256.1,110z"/>
		<path class="st4" d="M258.9,111l-0.6-0.2c-0.2-0.1-0.4-0.3-0.4-0.6l0-6.9c0-0.4,0.5-0.8,0.9-0.6l0.6,0.2c0.2,0.1,0.4,0.3,0.4,0.6
			l0,6.9C259.8,110.9,259.3,111.2,258.9,111z"/>
		<path class="st4" d="M261.7,112.2l-0.6-0.2c-0.2-0.1-0.4-0.3-0.4-0.6l0-6.9c0-0.4,0.5-0.8,0.9-0.6l0.6,0.2
			c0.2,0.1,0.4,0.3,0.4,0.6l0,6.9C262.5,112.1,262.1,112.4,261.7,112.2z"/>
		<path class="st4" d="M264.5,113.5l-0.6-0.2c-0.2-0.1-0.4-0.3-0.4-0.6l0-6.9c0-0.4,0.5-0.8,0.9-0.6l0.6,0.2
			c0.2,0.1,0.4,0.3,0.4,0.6l0,6.9C265.3,113.3,264.9,113.6,264.5,113.5z"/>
		<path class="st4" d="M267.3,114.5l-0.6-0.2c-0.2-0.1-0.4-0.3-0.4-0.6l0-6.9c0-0.4,0.5-0.8,0.9-0.6l0.6,0.2
			c0.2,0.1,0.4,0.3,0.4,0.6l0,6.9C268.1,114.3,267.7,114.6,267.3,114.5z"/>
		<path class="st4" d="M270,115.7l-0.6-0.2c-0.2-0.1-0.4-0.3-0.4-0.6l0-6.9c0-0.4,0.5-0.8,0.9-0.6l0.6,0.2c0.2,0.1,0.4,0.3,0.4,0.6
			l0,6.9C270.9,115.5,270.5,115.8,270,115.7z"/>
		<path class="st4" d="M309.5,117.2c2.7,2.5,1.8,5.7-1.7,6.9c-3.8,1.3-6,2.2-9.7,0.2c-3.2-1.7-2.3-6.3,1.2-7.5
			C302.8,115.6,306.6,114.5,309.5,117.2z"/>
		<path class="st4" d="M299.5,119.7c-1,0.7-1.5,1.7-1.1,2.2c0.4,0.5,0.8-0.6,1.8-1.3s2.1-0.8,1.8-1.3
			C301.6,118.8,300.5,119,299.5,119.7z"/>
		<path class="st4" d="M311.5,119.2c-0.9,2.8-3.4,1.6-7.2,1.6s-6.7-2-6.7-4.3c0-2.9,3.1-5.2,7-5.2
			C308.4,111.3,312.9,114.9,311.5,119.2z"/>
		<path class="st4" d="M313.9,101.4c0.9,7.7-2.6,13.8-3.9,13.7c-11.3-0.9-0.6-6.2-1.5-13.9s-3-13.8-1.8-13.9
			C307.9,87.2,313,93.8,313.9,101.4z"/>
		<path class="st4" d="M298.6,123.1c-0.5,0-0.9,0-1.4,0.1c-2.9,0.2-5.9,9.6-6.8,10.7c-3.2,3.8-11.1,3.9-20,1
			c-12.9-4.3-5.1-17.2,4.8-19.1"/>
		<g>
			<path class="st4" d="M264,129.6"/>
		</g>
	</g>
</g>
<g id="Layer_7">
	
		<linearGradient id="SVGID_00000174577401657052374740000011361665425124871070_" gradientUnits="userSpaceOnUse" x1="299.01" y1="-2.4702" x2="299.01" y2="839.4199" gradientTransform="matrix(1 0 0 -1 0 841.8898)">
		<stop  offset="9.057242e-07" style="stop-color:#B4DADF;stop-opacity:0.6"/>
		<stop  offset="0.2226" style="stop-color:#ACD2D9;stop-opacity:0.6668"/>
		<stop  offset="0.5816" style="stop-color:#97BDC9;stop-opacity:0.7745"/>
		<stop  offset="1" style="stop-color:#79A2B3;stop-opacity:0.9"/>
	</linearGradient>
	
		<rect x="1.4" y="2.5" style="fill:url(#SVGID_00000174577401657052374740000011361665425124871070_);" width="595.3" height="841.9"/>
</g>
<g id="Layer_5">
	<path class="st6" d="M516.5,629.3l-75.4,8.3c-1.8,0.2-3.5-0.5-4.9-1.8l-3.6-3.5c-4.1-4-2.1-11.3,3.2-11.9l75.4-8.3
		c1.8-0.2,3.5,0.5,4.9,1.8l3.6,3.5C523.7,621.4,521.8,628.7,516.5,629.3z"/>
	<path class="st6" d="M448.9,622.2l-69.5-29.1c-1.6-0.7-3.5-0.5-5.3,0.5l-4.6,2.6c-5.3,3-5.9,11-1,13l69.5,29.1
		c1.6,0.7,3.5,0.5,5.3-0.5l4.6-2.6C453.2,632.2,453.8,624.3,448.9,622.2z"/>
	<path class="st6" d="M439.8,620.1l-70.6,26.5c-1.6,0.6-2.9,2-3.4,3.9l-1.3,4.9c-1.5,5.7,4,11.7,9,9.8l70.6-26.5
		c1.6-0.6,2.9-2,3.4-3.9l1.3-4.9C450.4,624.3,444.8,618.2,439.8,620.1z"/>
	<path class="st6" d="M507.6,665.5L445.6,624c-1.4-1-3.4-1.2-5.3-0.5l-5,1.7c-5.8,1.9-8,9.6-3.6,12.6l62.1,41.6
		c1.4,1,3.4,1.2,5.3,0.5l5-1.7C509.8,676.2,512,668.5,507.6,665.5z"/>
	<path class="st6" d="M443.8,638.2h-6c-4.7,0-8.4-3.8-8.4-8.4V513.9h22.9v115.8C452.2,634.4,448.4,638.2,443.8,638.2z"/>
	<path class="st6" d="M444.9,487L441,360.4c-0.1-4.4,4.3-7.6,8.7-6.2l84.2,25.5c2.7,0.8,4.6,3.2,4.6,5.9l3.9,126.6
		c0.1,4.4-4.3,7.6-8.7,6.2l-84.2-25.5C446.8,492,445,489.7,444.9,487z"/>
	<path class="st6" d="M448.6,571.7l-100.3-30.5c-2.3-0.7-2.6-3.7-0.4-4.7l83.9-42.3c0.6-0.3,1.4-0.4,2.1-0.2l100.3,30.5
		c2.3,0.7,2.6,3.7,0.4,4.7l-83.9,42.3C450.1,571.8,449.3,571.9,448.6,571.7z"/>
	<rect x="477" y="493.8" class="st6" width="11.1" height="23"/>
	<path class="st7" d="M440.3,478L437,369.5c-0.1-3.8,3.7-6.5,7.5-5.4l72.2,21.9c2.3,0.7,3.9,2.7,4,5l3.3,108.5
		c0.1,3.8-3.7,6.5-7.5,5.4L444.3,483C442,482.3,440.4,480.3,440.3,478z"/>
	<path class="st8" d="M388.8,544.2c-25.6,18.1-35.2,53.2-45.2,40.3s12.6-42.6,38.3-60.7c25.6-18.1,44.5-17.6,54.5-4.8
		C446.4,532,414.4,526.1,388.8,544.2z"/>
	<path class="st8" d="M415.1,564.5c-10.7,21.2,2.1,51.3-14,44c-16-7.4-14.6-36.9-3.9-58c10.7-21.2,26.8-26,42.8-18.7
		C456.1,539.2,425.9,543.4,415.1,564.5z"/>
	<path class="st8" d="M407.6,611.5c-8,13.4-25.9,4.5-26.9,3.9c-1.5-0.8-14.2-7.6-6.1-21c8-13.4,20.2-9.2,24.1-7.3
		C401.1,588.3,415.7,598.1,407.6,611.5z"/>
	<path class="st8" d="M355.6,583.6c-8,13.4-25.9,4.5-26.9,3.9c-1.5-0.8-14.2-7.6-6.1-21c8-13.4,20.2-9.2,24.1-7.3
		C349.1,560.5,363.6,570.2,355.6,583.6z"/>
	
		<linearGradient id="SVGID_00000093886246962724686840000005448773762408565648_" gradientUnits="userSpaceOnUse" x1="530.9" y1="291.172" x2="442.9772" y2="291.172" gradientTransform="matrix(1 0 0 -1 0 841.8898)">
		<stop  offset="0" style="stop-color:#978871"/>
		<stop  offset="0.3718" style="stop-color:#95856F"/>
		<stop  offset="0.5853" style="stop-color:#8E7E69"/>
		<stop  offset="0.7583" style="stop-color:#827160"/>
		<stop  offset="0.825" style="stop-color:#7C6A5A"/>
	</linearGradient>
	<path style="fill:url(#SVGID_00000093886246962724686840000005448773762408565648_);" d="M521.8,591c-23,3.8,7.3-63.6-36.1-42.5
		c-28,13.6-45.1-32.1-42.5-34.9c14.6-15.2,12.6,27.8,48.5,15C535.4,512.9,537.9,588.3,521.8,591z"/>
	<path class="st10" d="M413.3,488.6c-0.7,19.4-4.5,34.8-21.7,34.2s-4.6-16-3.9-35.4s-10.8-35.3,6.4-34.7S414,469.2,413.3,488.6z"/>
	
		<radialGradient id="SVGID_00000097482489895329586850000010001859541857328298_" cx="401.3194" cy="346.7909" r="43.8781" gradientTransform="matrix(1 0 0 -1 0 841.8898)" gradientUnits="userSpaceOnUse">
		<stop  offset="0" style="stop-color:#978871"/>
		<stop  offset="0.4507" style="stop-color:#95856F"/>
		<stop  offset="0.7095" style="stop-color:#8E7E69"/>
		<stop  offset="0.9192" style="stop-color:#827160"/>
		<stop  offset="1" style="stop-color:#7C6A5A"/>
	</radialGradient>
	<path style="fill:url(#SVGID_00000097482489895329586850000010001859541857328298_);" d="M453.9,513.3c0,24.3-21.4,40.1-47,32.6
		c-25.2-7.4-14.6-19-14.6-43.4c0-24.3-14.8-60,12-60C431.1,442.5,453.9,488.9,453.9,513.3z"/>
	
		<linearGradient id="SVGID_00000117642682176178187430000003818381138500742025_" gradientUnits="userSpaceOnUse" x1="338.3565" y1="495.4728" x2="366.4922" y2="446.7402" gradientTransform="matrix(1 0 0 -1 0 841.8898)">
		<stop  offset="0" style="stop-color:#978871"/>
		<stop  offset="0.5161" style="stop-color:#958670"/>
		<stop  offset="0.702" style="stop-color:#8F7F6B"/>
		<stop  offset="0.834" style="stop-color:#867563"/>
		<stop  offset="0.9143" style="stop-color:#7C6A5A"/>
	</linearGradient>
	<path style="fill:url(#SVGID_00000117642682176178187430000003818381138500742025_);" d="M347.1,406.3l-7.3-59.9
		c-0.2-1.2,1.3-1.9,2.1-0.9l41.9,35L347.1,406.3z"/>
	<path class="st8" d="M434.4,422.1c0,24.1-25.3,35.2-50.6,35.2s-41.9-10.8-41.9-34.9c0-24.1,18.8-46.6,44.1-46.6
		S434.4,398,434.4,422.1z"/>
	<path class="st8" d="M431.5,417.8c6-6.2-3.8-74.8-3.8-74.8c0-1.2-1.8-1.6-2.5-0.5l-32.2,33.3C392.9,375.8,421.6,428,431.5,417.8z"
		/>
	
		<linearGradient id="SVGID_00000163760967030360215940000013878958135748798871_" gradientUnits="userSpaceOnUse" x1="358.8129" y1="410.3202" x2="358.8129" y2="431.0898" gradientTransform="matrix(1 0 0 -1 0 841.8898)">
		<stop  offset="6.819570e-07" style="stop-color:#D1ECEE"/>
		<stop  offset="0.2959" style="stop-color:#CEEAEC"/>
		<stop  offset="0.4995" style="stop-color:#C5E4E7"/>
		<stop  offset="0.6732" style="stop-color:#B7DBE0"/>
		<stop  offset="1" style="stop-color:#B4DADF"/>
	</linearGradient>
	<path style="fill:url(#SVGID_00000163760967030360215940000013878958135748798871_);" d="M346.1,410.8c0,0.1-0.1,0.3-0.1,0.5
		c-1.9,9.5,2.7,18.4,10.2,19.8s13.4,0,15.3-9.5c0.5-2.3,0.6-4.9,0.5-7.5C363.4,413.2,354.7,412.1,346.1,410.8z"/>
	
		<linearGradient id="SVGID_00000044860632443026421080000011556734601847402687_" gradientUnits="userSpaceOnUse" x1="404.2566" y1="404.4573" x2="404.2566" y2="426.5799" gradientTransform="matrix(1 0 0 -1 0 841.8898)">
		<stop  offset="6.819570e-07" style="stop-color:#D1ECEE"/>
		<stop  offset="0.2959" style="stop-color:#CEEAEC"/>
		<stop  offset="0.4995" style="stop-color:#C5E4E7"/>
		<stop  offset="0.6732" style="stop-color:#B7DBE0"/>
		<stop  offset="1" style="stop-color:#B4DADF"/>
	</linearGradient>
	<path style="fill:url(#SVGID_00000044860632443026421080000011556734601847402687_);" d="M424.6,417c-3.5,0.3-6.9,0.4-10.5,0.2
		c-9.6-0.4-19.3-1.1-28.9-1.9c-0.7,2.4-1.2,5-1.3,7.4c-0.5,10.9,7.6,14,19.1,14.7c11.5,0.7,21.2-7.5,21.7-18.5
		C424.7,418.3,424.7,417.6,424.6,417z"/>
	<path class="st6" d="M357.8,412.4c-0.3,1.5-0.7,3.2-1,4.8c-0.6,3.2-0.8,6.4-0.8,9.5c0,3.1,1.1,5.8,2.4-0.3c1.3-6,1.6-7.6,3.2-13.5
		C360.3,412.8,359.1,412.5,357.8,412.4z"/>
	
		<linearGradient id="SVGID_00000175315008278298942440000009124900369325728939_" gradientUnits="userSpaceOnUse" x1="394.7653" y1="407.9818" x2="394.7653" y2="425.925" gradientTransform="matrix(1 0 0 -1 0 841.8898)">
		<stop  offset="6.819570e-07" style="stop-color:#6D747B"/>
		<stop  offset="0.5212" style="stop-color:#6A7178"/>
		<stop  offset="0.8799" style="stop-color:#636A71"/>
		<stop  offset="1" style="stop-color:#5F666E"/>
	</linearGradient>
	<path style="fill:url(#SVGID_00000175315008278298942440000009124900369325728939_);" d="M393.2,416c-0.4,1.7-0.7,3.7-1.1,5.7
		c-0.6,3-0.7,6.1-0.6,9c0.1,2.9,1.5,5.6,2.8-0.2c1.4-6.2,1.6-7.1,3.7-14.2C396.4,416.2,394.8,415.9,393.2,416z"/>
	<path class="st16" d="M342.4,428.4c0,0-15.3-4-31,6.1c0,0,18.5-8.7,29.6-4.7C341.1,429.8,343.2,430.3,342.4,428.4z"/>
	<path class="st16" d="M343.1,432.7c0,0-15.7-1.7-29.5,10.6c0,0,16.8-11.3,28.5-9C342,434.4,344.2,434.5,343.1,432.7z"/>
	<path class="st16" d="M345,437.4c0,0-15,2-24.7,16.8c0,0,12.8-14.5,24.1-15C344.4,439.2,346.5,438.9,345,437.4z"/>
	<path class="st16" d="M411.8,439.1c0,0,12.6,1.9,20.7,16c0,0-10.6-13.9-20.2-14.3C412.3,440.8,410.6,440.5,411.8,439.1z"/>
	<path class="st16" d="M411.1,443.5c0,0,11.7,5,15.6,20.6c0,0-6.4-16-15.6-18.8C411.1,445.3,409.5,444.6,411.1,443.5z"/>
	<path class="st16" d="M410.1,447.4c0,0,9.1,8.7,6.7,24.5c0,0,0.1-17-7.4-22.9C409.5,449,408.3,447.8,410.1,447.4z"/>
</g>
<g id="Layer_3">
	<polygon class="st4" points="495.3,742.2 259,652.5 125.1,724.5 361.4,814.1 	"/>
	<polyline class="st10" points="140.8,555.4 140.8,730.4 125.1,724.5 125.1,549.3 	"/>
	<polyline class="st17" points="495.3,567.7 495.3,742.2 480.5,750 483.5,574.2 	"/>
	<polygon class="st10" points="362,641.5 361.4,814.1 347.1,808.2 347.1,635.3 	"/>
	<polygon class="st17" points="377.2,633.2 377.2,805.6 361.4,814.1 362,641.5 	"/>
	<path class="st18" d="M140.8,730.4"/>
	<polygon class="st17" points="469.7,574.6 467.5,745 480.5,750 484,571.4 	"/>
	<polygon class="st17" points="153,555.2 153,723.2 140.8,730.4 140.8,555.4 	"/>
	<polygon class="st17" points="259,473.6 259,667.5 271.8,659.7 270,479.8 	"/>
	<polygon class="st17" points="245.1,478.8 243.3,661.6 259,667.5 259,471.3 	"/>
	<polygon class="st17" points="112.6,543.9 112.6,550 363.4,642.2 504.6,568.4 504.6,561.6 362.8,633.5 	"/>
	<polygon class="st10" points="504.6,561.6 254.4,472 112.6,543.9 362.8,633.5 	"/>
	
		<linearGradient id="SVGID_00000000218670137734197200000016366133060479306405_" gradientUnits="userSpaceOnUse" x1="288.8656" y1="273.2626" x2="300.0644" y2="315.057" gradientTransform="matrix(1 0 0 -1 0 841.8898)">
		<stop  offset="6.819570e-07" style="stop-color:#D1ECEE"/>
		<stop  offset="0.2959" style="stop-color:#CEEAEC"/>
		<stop  offset="0.4995" style="stop-color:#C5E4E7"/>
		<stop  offset="0.6732" style="stop-color:#B7DBE0"/>
		<stop  offset="1" style="stop-color:#B4DADF"/>
	</linearGradient>
	<path style="fill:url(#SVGID_00000000218670137734197200000016366133060479306405_);" d="M344.1,545.8l-64.2-24.3
		c-1.7-0.7-3.6-0.5-5.2,0.3l-30.5,16.4c-4.8,2.6-4.3,9.6,0.8,11.5l64.2,24.3c1.7,0.7,3.6,0.5,5.2-0.3l30.5-16.4
		C349.6,554.7,349.1,547.7,344.1,545.8z"/>
	<path class="st16" d="M365.8,563.7l-130.3-50.2c-3.8-1.5-6.4-5.1-6.4-9.3l-0.2-83.1c0-7,7-11.8,13.5-9.3L372.7,462
		c3.8,1.5,6.4,5.1,6.4,9.3l0.2,83.1C379.3,561.3,372.3,566.2,365.8,563.7z"/>
	<path class="st20" d="M266.4,521.5l-1.8-0.7c-0.8-0.3-1.2-1-1.2-1.8l-0.1-20.9c0-1.4,1.4-2.3,2.6-1.8l1.8,0.7
		c0.8,0.3,1.2,1,1.2,1.8l0.1,20.8C269.1,521.1,267.7,522,266.4,521.5z"/>
	<path class="st20" d="M274.9,525.2l-1.8-0.7c-0.8-0.3-1.2-1-1.2-1.8l-0.1-20.9c0-1.4,1.4-2.3,2.6-1.8l1.8,0.7
		c0.8,0.3,1.2,1,1.2,1.8l0.1,20.8C277.5,524.8,276.1,525.7,274.9,525.2z"/>
	<path class="st20" d="M283.4,528.3l-1.8-0.7c-0.8-0.3-1.2-1-1.2-1.8l-0.1-20.9c0-1.4,1.4-2.3,2.6-1.8l1.8,0.7
		c0.8,0.3,1.2,1,1.2,1.8l0.1,20.8C286,527.8,284.7,528.8,283.4,528.3z"/>
	<path class="st20" d="M291.8,532l-1.8-0.7c-0.8-0.3-1.2-1-1.2-1.8l-0.1-20.9c0-1.4,1.4-2.3,2.6-1.8l1.8,0.7c0.8,0.3,1.2,1,1.2,1.8
		l0.1,20.8C294.5,531.5,293.1,532.5,291.8,532z"/>
	<path class="st20" d="M300.2,535.7l-1.8-0.7c-0.8-0.3-1.2-1-1.2-1.8l-0.1-20.8c0-1.4,1.4-2.3,2.6-1.8l1.8,0.7
		c0.8,0.3,1.2,1,1.2,1.8l0.1,20.8C302.9,535.2,301.5,536.2,300.2,535.7z"/>
	<path class="st20" d="M308.8,538.7l-1.8-0.7c-0.8-0.3-1.2-1-1.2-1.8l-0.1-20.8c0-1.4,1.4-2.3,2.6-1.8l1.8,0.7
		c0.8,0.3,1.2,1,1.2,1.8l0.1,20.8C311.4,538.3,310,539.2,308.8,538.7z"/>
	<path class="st20" d="M317.2,542.4l-1.8-0.7c-0.8-0.3-1.2-1-1.2-1.8l-0.1-20.8c0-1.4,1.4-2.3,2.6-1.8l1.8,0.7
		c0.8,0.3,1.2,1,1.2,1.8l0.1,20.8C319.9,542,318.5,542.9,317.2,542.4z"/>
	<polygon class="st7" points="197.6,547.2 174.3,538.5 174.3,482.3 197.6,491 	"/>
	<polygon class="st6" points="197.6,547.2 212.7,538.5 212.7,482.3 197.6,491 	"/>
	
		<linearGradient id="SVGID_00000142157454360895306010000018340476763265829806_" gradientUnits="userSpaceOnUse" x1="182.2951" y1="351.5849" x2="191.13" y2="360.4199" gradientTransform="matrix(1 0 0 -1 0 841.8898)">
		<stop  offset="6.819570e-07" style="stop-color:#D1ECEE"/>
		<stop  offset="0.3663" style="stop-color:#CEEAEC"/>
		<stop  offset="0.6183" style="stop-color:#C5E4E7"/>
		<stop  offset="0.8333" style="stop-color:#B7DBE0"/>
		<stop  offset="1" style="stop-color:#B4DADF"/>
	</linearGradient>
	<polygon style="fill:url(#SVGID_00000142157454360895306010000018340476763265829806_);" points="174.3,482.3 185,475.3 197.6,491 
			"/>
	<polygon class="st16" points="212.7,482.3 200.4,470.8 185,475.3 197.6,491 	"/>
	<polygon class="st16" points="200.4,470.8 185,475.3 185,471.3 200.7,467.5 	"/>
</g>
<g id="Layer_4" class="st0">
	
		<linearGradient id="SVGID_00000164494421885297310460000014621004096016525223_" gradientUnits="userSpaceOnUse" x1="410.213" y1="268.8792" x2="428.4362" y2="300.4426" gradientTransform="matrix(1 0 0 -1 0 841.8898)">
		<stop  offset="0.4656" style="stop-color:#D1ECEE"/>
		<stop  offset="0.4803" style="stop-color:#CEEAEC"/>
		<stop  offset="0.568" style="stop-color:#BFE0E4"/>
		<stop  offset="0.6719" style="stop-color:#B7DCE0"/>
		<stop  offset="0.8324" style="stop-color:#B4DADF"/>
	</linearGradient>
	<path style="display:inline;fill:url(#SVGID_00000164494421885297310460000014621004096016525223_);" d="M437.2,547.1
		c8.1,7.7,5.4,17.2-5.1,20.9c-11.6,4.1-18.1,6.6-29.4,0.6c-9.9-5.2-6.9-19,3.6-22.7C416.8,542.3,428.3,538.7,437.2,547.1z"/>
	<path class="st23" d="M406.7,554.6c-2.9,2.2-4.4,5.2-3.3,6.7s2.4-1.8,5.3-4c2.9-2.2,6.4-2.5,5.3-4S409.7,552.4,406.7,554.6z"/>
	<path class="st24" d="M443,553.1c-2.8,8.3-10.3,4.9-21.9,4.9c-11.7,0-20.3-6.1-20.3-13c0-8.8,9.5-16,21.1-16S447.4,540,443,553.1z"
		/>
	
		<linearGradient id="SVGID_00000050660011995088343600000016637002407007561388_" gradientUnits="userSpaceOnUse" x1="436.9932" y1="301.1064" x2="436.9932" y2="385.5966" gradientTransform="matrix(1 0 0 -1 0 841.8898)">
		<stop  offset="0" style="stop-color:#978871"/>
		<stop  offset="0.4104" style="stop-color:#95856F"/>
		<stop  offset="0.6461" style="stop-color:#8E7E69"/>
		<stop  offset="0.837" style="stop-color:#827160"/>
		<stop  offset="0.9106" style="stop-color:#7C6A5A"/>
	</linearGradient>
	<path style="display:inline;fill:url(#SVGID_00000050660011995088343600000016637002407007561388_);" d="M450.5,499.2
		c2.8,23.3-8,41.9-11.7,41.6c-34.3-2.7-1.9-19-4.7-42.3s-9.2-41.7-5.6-42.2C432.2,455.9,447.7,475.9,450.5,499.2z"/>
	<path class="st26" d="M404.1,565.1c-1.4,0-2.8,0.1-4.1,0.2c-8.9,0.5-17.9,29.2-20.7,32.4c-9.8,11.4-33.7,12-60.8,2.9
		c-39.2-13.1-15.6-52.1,14.5-58.1"/>
	<g class="st27">
		<g>
			<path class="st16" d="M298.4,585.5c0.5,0,1.6-0.2,1.9-0.8c0.3-0.6-0.3-0.7-0.7-0.7c-0.5,0-1.6,0.2-1.9,0.8
				C297.4,585.3,298,585.5,298.4,585.5L298.4,585.5z"/>
		</g>
	</g>
	<g class="st27">
		<path class="st6" d="M376,582.6l-75.4,8.3c-1.8,0.2-3.5-0.5-4.9-1.8l-3.6-3.5c-4.1-4-2.1-11.3,3.2-11.9l75.4-8.3
			c1.8-0.2,3.5,0.5,4.9,1.8l3.6,3.5C383.3,574.7,381.3,582,376,582.6z"/>
		<path class="st6" d="M308.4,575.5l-69.5-29.1c-1.6-0.7-3.5-0.5-5.3,0.5l-4.6,2.6c-5.3,3-5.9,11-1,13l69.5,29.1
			c1.6,0.7,3.5,0.5,5.3-0.5l4.6-2.6C312.7,585.6,313.3,577.6,308.4,575.5z"/>
		<path class="st6" d="M299.4,573.4l-70.6,26.5c-1.6,0.6-2.9,2-3.4,3.9l-1.3,4.9c-1.5,5.7,4,11.7,9,9.8l70.6-26.5
			c1.6-0.6,2.9-2,3.4-3.9l1.3-4.9C309.9,577.6,304.4,571.6,299.4,573.4z"/>
		<path class="st6" d="M367.2,618.8l-62.1-41.6c-1.4-1-3.4-1.2-5.3-0.5l-5,1.7c-5.8,1.9-8,9.6-3.6,12.6l62.1,41.6
			c1.4,1,3.4,1.2,5.3,0.5l5-1.7C369.4,629.5,371.6,621.8,367.2,618.8z"/>
		<path class="st6" d="M303.4,591.5h-6c-4.7,0-8.4-3.8-8.4-8.4V467.3h22.9v115.8C311.8,587.7,308,591.5,303.4,591.5z"/>
		<path class="st6" d="M304.5,440.3l-3.9-126.6c-0.1-4.4,4.3-7.6,8.7-6.2l84.2,25.5c2.7,0.8,4.6,3.2,4.6,5.9l3.9,126.6
			c0.1,4.4-4.3,7.6-8.7,6.2l-84.2-25.5C306.4,445.4,304.5,443,304.5,440.3z"/>
		<path class="st6" d="M308.2,525l-100.3-30.5c-2.3-0.7-2.6-3.7-0.4-4.7l83.9-42.3c0.6-0.3,1.4-0.4,2.1-0.2l100.3,30.5
			c2.3,0.7,2.6,3.7,0.4,4.7l-83.9,42.3C309.6,525.1,308.9,525.2,308.2,525z"/>
		<rect x="336.5" y="447.1" class="st6" width="11.1" height="23"/>
		<path class="st7" d="M299.9,431.3l-3.3-108.5c-0.1-3.8,3.7-6.5,7.5-5.4l72.2,21.9c2.3,0.7,3.9,2.7,4,5l3.3,108.5
			c0.1,3.8-3.7,6.5-7.5,5.4l-72.2-21.9C301.6,435.7,300,433.6,299.9,431.3z"/>
		<path class="st8" d="M248.3,497.5c-25.6,18.1-35.2,53.2-45.2,40.3s12.6-42.6,38.3-60.7s44.5-17.6,54.5-4.8
			C306,485.3,274,479.4,248.3,497.5z"/>
		<path class="st8" d="M274.7,517.9c-10.7,21.2,2.1,51.3-14,44c-16-7.4-14.6-36.9-3.9-58c10.7-21.2,26.8-26,42.8-18.7
			C315.7,492.5,285.4,496.7,274.7,517.9z"/>
		<path class="st8" d="M267.2,564.8c-8,13.4-25.9,4.5-26.9,3.9c-1.5-0.8-14.2-7.6-6.1-21c8-13.4,20.2-9.2,24.1-7.3
			C260.7,541.7,275.2,551.4,267.2,564.8z"/>
		<path class="st8" d="M215.2,536.9c-8,13.4-25.9,4.5-26.9,3.9c-1.5-0.8-14.2-7.6-6.1-21c8-13.4,20.2-9.2,24.1-7.3
			C208.7,513.8,223.2,523.5,215.2,536.9z"/>
		
			<linearGradient id="SVGID_00000023256050878491501730000003196530521928833982_" gradientUnits="userSpaceOnUse" x1="390.4756" y1="337.8521" x2="302.5572" y2="337.8521" gradientTransform="matrix(1 0 0 -1 0 841.8898)">
			<stop  offset="0" style="stop-color:#978871"/>
			<stop  offset="0.3718" style="stop-color:#95856F"/>
			<stop  offset="0.5853" style="stop-color:#8E7E69"/>
			<stop  offset="0.7583" style="stop-color:#827160"/>
			<stop  offset="0.825" style="stop-color:#7C6A5A"/>
		</linearGradient>
		<path style="fill:url(#SVGID_00000023256050878491501730000003196530521928833982_);" d="M381.4,544.3c-23,3.8,7.3-63.6-36.1-42.5
			c-28,13.6-45.1-32.1-42.5-34.9c14.6-15.2,12.6,27.8,48.5,15C395,466.2,397.5,541.6,381.4,544.3z"/>
		<path class="st10" d="M272.9,441.9c-0.7,19.4-4.5,34.8-21.7,34.2s-4.6-16-3.9-35.4s-10.8-35.3,6.4-34.7S273.6,422.5,272.9,441.9z"
			/>
		
			<radialGradient id="SVGID_00000083797725895771693520000012860839438861517201_" cx="260.8928" cy="393.4709" r="43.8777" gradientTransform="matrix(1 0 0 -1 0 841.8898)" gradientUnits="userSpaceOnUse">
			<stop  offset="0" style="stop-color:#978871"/>
			<stop  offset="0.4507" style="stop-color:#95856F"/>
			<stop  offset="0.7095" style="stop-color:#8E7E69"/>
			<stop  offset="0.9192" style="stop-color:#827160"/>
			<stop  offset="1" style="stop-color:#7C6A5A"/>
		</radialGradient>
		<path style="fill:url(#SVGID_00000083797725895771693520000012860839438861517201_);" d="M313.5,466.6c0,24.3-21.4,40.1-47,32.6
			c-25.2-7.4-14.6-19-14.6-43.4s-14.8-60,12-60S313.5,442.3,313.5,466.6z"/>
		
			<linearGradient id="SVGID_00000182511806224582749000000008856439815580188082_" gradientUnits="userSpaceOnUse" x1="197.9265" y1="542.1528" x2="226.0623" y2="493.4202" gradientTransform="matrix(1 0 0 -1 0 841.8898)">
			<stop  offset="0" style="stop-color:#978871"/>
			<stop  offset="0.5161" style="stop-color:#958670"/>
			<stop  offset="0.702" style="stop-color:#8F7F6B"/>
			<stop  offset="0.834" style="stop-color:#867563"/>
			<stop  offset="0.9143" style="stop-color:#7C6A5A"/>
		</linearGradient>
		<path style="fill:url(#SVGID_00000182511806224582749000000008856439815580188082_);" d="M206.7,359.7l-7.3-59.9
			c-0.2-1.2,1.3-1.9,2.1-0.9l41.9,35L206.7,359.7z"/>
		<path class="st8" d="M294,375.4c0,24.1-25.3,35.2-50.6,35.2c-25.3,0-41.9-10.8-41.9-34.9s18.8-46.6,44.1-46.6S294,351.3,294,375.4
			z"/>
		<path class="st8" d="M291.1,371.1c6-6.2-3.8-74.8-3.8-74.8c0-1.2-1.8-1.6-2.5-0.5l-32.2,33.3C252.5,329.1,281.2,381.4,291.1,371.1
			z"/>
		
			<linearGradient id="SVGID_00000090275574713203133660000000854696449983178397_" gradientUnits="userSpaceOnUse" x1="218.3929" y1="457.0002" x2="218.3929" y2="477.7698" gradientTransform="matrix(1 0 0 -1 0 841.8898)">
			<stop  offset="6.819570e-07" style="stop-color:#D1ECEE"/>
			<stop  offset="0.2959" style="stop-color:#CEEAEC"/>
			<stop  offset="0.4995" style="stop-color:#C5E4E7"/>
			<stop  offset="0.6732" style="stop-color:#B7DBE0"/>
			<stop  offset="1" style="stop-color:#B4DADF"/>
		</linearGradient>
		<path style="fill:url(#SVGID_00000090275574713203133660000000854696449983178397_);" d="M205.7,364.1c0,0.1-0.1,0.3-0.1,0.5
			c-1.9,9.5,2.7,18.4,10.2,19.8c7.5,1.5,13.4,0,15.3-9.5c0.4-2.3,0.6-4.9,0.5-7.5C222.9,366.5,214.3,365.4,205.7,364.1z"/>
		
			<linearGradient id="SVGID_00000013164940956874534260000008050834623749158537_" gradientUnits="userSpaceOnUse" x1="263.8354" y1="451.1373" x2="263.8354" y2="473.2599" gradientTransform="matrix(1 0 0 -1 0 841.8898)">
			<stop  offset="6.819570e-07" style="stop-color:#D1ECEE"/>
			<stop  offset="0.2959" style="stop-color:#CEEAEC"/>
			<stop  offset="0.4995" style="stop-color:#C5E4E7"/>
			<stop  offset="0.6732" style="stop-color:#B7DBE0"/>
			<stop  offset="1" style="stop-color:#B4DADF"/>
		</linearGradient>
		<path style="fill:url(#SVGID_00000013164940956874534260000008050834623749158537_);" d="M284.2,370.3c-3.5,0.3-6.9,0.4-10.5,0.2
			c-9.6-0.4-19.3-1.1-28.9-1.9c-0.7,2.4-1.2,5-1.3,7.4c-0.5,10.9,7.6,14,19.1,14.7c11.5,0.7,21.2-7.5,21.7-18.5
			C284.3,371.6,284.2,371,284.2,370.3z"/>
		<path class="st6" d="M217.4,365.8c-0.3,1.5-0.7,3.2-1,4.8c-0.6,3.2-0.8,6.4-0.8,9.5c0,3.1,1.1,5.8,2.4-0.3c1.3-6,1.6-7.6,3.2-13.5
			C219.9,366.1,218.7,365.9,217.4,365.8z"/>
		
			<linearGradient id="SVGID_00000138536232360160615320000010377525890906046654_" gradientUnits="userSpaceOnUse" x1="254.3453" y1="454.6617" x2="254.3453" y2="472.6049" gradientTransform="matrix(1 0 0 -1 0 841.8898)">
			<stop  offset="6.819570e-07" style="stop-color:#6D747B"/>
			<stop  offset="0.5212" style="stop-color:#6A7178"/>
			<stop  offset="0.8799" style="stop-color:#636A71"/>
			<stop  offset="1" style="stop-color:#5F666E"/>
		</linearGradient>
		<path style="fill:url(#SVGID_00000138536232360160615320000010377525890906046654_);" d="M252.8,369.3c-0.4,1.7-0.7,3.7-1.1,5.7
			c-0.6,3-0.7,6.1-0.6,9c0.1,2.9,1.5,5.6,2.8-0.2c1.4-6.2,1.6-7.1,3.7-14.2C255.9,369.6,254.4,369.2,252.8,369.3z"/>
		<path class="st16" d="M202,381.7c0,0-15.3-4-31,6.1c0,0,18.5-8.7,29.6-4.7C200.6,383.2,202.8,383.7,202,381.7z"/>
		<path class="st16" d="M202.7,386.1c0,0-15.7-1.7-29.6,10.6c0,0,16.8-11.3,28.5-9C201.6,387.7,203.8,387.9,202.7,386.1z"/>
		<path class="st16" d="M204.6,390.7c0,0-15,2-24.7,16.8c0,0,12.8-14.5,24.1-15C204,392.5,206.1,392.2,204.6,390.7z"/>
		<path class="st16" d="M271.4,392.4c0,0,12.6,1.9,20.7,16c0,0-10.6-13.9-20.2-14.3C271.9,394.1,270.1,393.9,271.4,392.4z"/>
		<path class="st16" d="M270.7,396.9c0,0,11.7,5,15.6,20.6c0,0-6.4-16-15.6-18.8C270.7,398.6,269.1,397.9,270.7,396.9z"/>
		<path class="st16" d="M269.7,400.7c0,0,9.1,8.7,6.7,24.5c0,0,0.1-17-7.4-22.9C269,402.3,267.8,401.1,269.7,400.7z"/>
		<polygon class="st4" points="354.9,695.5 118.6,605.9 -15.3,677.8 221,767.4 		"/>
		<polyline class="st10" points="0.4,508.7 0.4,683.7 -15.3,677.8 -15.3,502.6 		"/>
		<polyline class="st17" points="354.9,521 354.9,695.5 340,703.3 343.1,527.6 		"/>
		<polygon class="st10" points="221.5,594.8 221,767.4 206.6,761.5 206.6,588.6 		"/>
		<polygon class="st17" points="236.7,586.5 236.7,758.9 221,767.4 221.5,594.8 		"/>
		<path class="st18" d="M0.4,683.7"/>
		<polygon class="st17" points="329.3,527.9 327.1,698.3 340.1,703.3 343.6,524.7 		"/>
		<polygon class="st17" points="12.6,508.5 12.6,676.5 0.4,683.7 0.4,508.7 		"/>
		<polygon class="st17" points="118.6,427 118.6,620.8 131.4,613 129.5,433.1 		"/>
		<polygon class="st17" points="104.7,432.1 102.8,614.9 118.6,620.8 118.6,424.6 		"/>
		<polygon class="st17" points="-27.9,497.2 -27.9,503.3 222.9,595.5 364.1,521.7 364.1,514.9 222.4,586.8 		"/>
		<polygon class="st10" points="364.1,514.9 113.9,425.3 -27.9,497.2 222.4,586.8 		"/>
		
			<linearGradient id="SVGID_00000028295048460608386470000005214137291953761688_" gradientUnits="userSpaceOnUse" x1="148.4435" y1="319.9432" x2="159.6423" y2="361.7376" gradientTransform="matrix(1 0 0 -1 0 841.8898)">
			<stop  offset="6.819570e-07" style="stop-color:#D1ECEE"/>
			<stop  offset="0.2959" style="stop-color:#CEEAEC"/>
			<stop  offset="0.4995" style="stop-color:#C5E4E7"/>
			<stop  offset="0.6732" style="stop-color:#B7DBE0"/>
			<stop  offset="1" style="stop-color:#B4DADF"/>
		</linearGradient>
		<path style="fill:url(#SVGID_00000028295048460608386470000005214137291953761688_);" d="M203.6,499.1l-64.2-24.4
			c-1.7-0.6-3.6-0.5-5.2,0.3l-30.5,16.4c-4.8,2.6-4.3,9.6,0.8,11.5l64.2,24.3c1.7,0.7,3.6,0.5,5.2-0.3l30.5-16.4
			C209.2,508,208.7,501,203.6,499.1z"/>
		<path class="st16" d="M225.3,517L95,466.8c-3.8-1.5-6.4-5.1-6.4-9.3l-0.2-83.1c0-7,7-11.8,13.5-9.3l130.3,50.2
			c3.8,1.5,6.4,5.1,6.4,9.3l0.2,83.1C238.9,514.7,231.9,519.5,225.3,517z"/>
		<path class="st20" d="M126,474.8l-1.8-0.7c-0.8-0.3-1.2-1-1.2-1.8l-0.1-20.9c0-1.4,1.4-2.3,2.7-1.8l1.8,0.7c0.8,0.3,1.2,1,1.2,1.8
			l0.1,20.8C128.7,474.4,127.3,475.3,126,474.8z"/>
		<path class="st20" d="M134.4,478.5l-1.8-0.7c-0.8-0.3-1.2-1-1.2-1.8l-0.1-20.9c0-1.4,1.4-2.3,2.6-1.8l1.8,0.7
			c0.8,0.3,1.2,1,1.2,1.8l0.1,20.8C137.1,478.1,135.7,479,134.4,478.5z"/>
		<path class="st20" d="M143,481.6l-1.8-0.7c-0.8-0.3-1.2-1-1.2-1.8l-0.1-20.9c0-1.4,1.4-2.3,2.6-1.8l1.8,0.7c0.8,0.3,1.2,1,1.2,1.8
			l0.1,20.8C145.6,481.1,144.2,482.1,143,481.6z"/>
		<path class="st20" d="M151.4,485.3l-1.8-0.7c-0.8-0.3-1.2-1-1.2-1.8l-0.1-20.9c0-1.4,1.4-2.3,2.6-1.8l1.8,0.7
			c0.8,0.3,1.2,1,1.2,1.8l0.1,20.8C154.1,484.9,152.7,485.8,151.4,485.3z"/>
		<path class="st20" d="M159.8,489l-1.8-0.7c-0.8-0.3-1.2-1-1.2-1.8l-0.1-20.9c0-1.4,1.4-2.3,2.6-1.8l1.8,0.7c0.8,0.3,1.2,1,1.2,1.8
			l0.1,20.8C162.5,488.5,161.1,489.5,159.8,489z"/>
		<path class="st20" d="M168.4,492.1l-1.8-0.7c-0.8-0.3-1.2-1-1.2-1.8l-0.1-20.9c0-1.4,1.4-2.3,2.6-1.8l1.8,0.7
			c0.8,0.3,1.2,1,1.2,1.8l0.1,20.8C171,491.6,169.6,492.5,168.4,492.1z"/>
		<path class="st20" d="M176.8,495.8l-1.8-0.7c-0.8-0.3-1.2-1-1.2-1.8l-0.1-20.9c0-1.4,1.4-2.3,2.6-1.8l1.8,0.7
			c0.8,0.3,1.2,1,1.2,1.8l0.1,20.8C179.4,495.3,178.1,496.2,176.8,495.8z"/>
		<polygon class="st7" points="57.2,500.5 33.9,491.8 33.9,435.6 57.2,444.3 		"/>
		<polygon class="st6" points="57.2,500.5 72.2,491.8 72.2,435.6 57.2,444.3 		"/>
		
			<linearGradient id="SVGID_00000014607201708774676980000016497255254453978520_" gradientUnits="userSpaceOnUse" x1="41.8675" y1="398.2623" x2="50.7025" y2="407.0973" gradientTransform="matrix(1 0 0 -1 0 841.8898)">
			<stop  offset="6.819570e-07" style="stop-color:#D1ECEE"/>
			<stop  offset="0.3663" style="stop-color:#CEEAEC"/>
			<stop  offset="0.6183" style="stop-color:#C5E4E7"/>
			<stop  offset="0.8333" style="stop-color:#B7DBE0"/>
			<stop  offset="1" style="stop-color:#B4DADF"/>
		</linearGradient>
		<polygon style="fill:url(#SVGID_00000014607201708774676980000016497255254453978520_);" points="33.9,435.6 44.6,428.6 
			57.2,444.3 		"/>
		<polygon class="st16" points="72.2,435.6 59.9,424.1 44.6,428.6 57.2,444.3 		"/>
		<polygon class="st16" points="59.9,424.1 44.6,428.6 44.6,424.6 60.3,420.8 		"/>
		
			<linearGradient id="SVGID_00000100368431338085244780000016339809629462475943_" gradientUnits="userSpaceOnUse" x1="269.7831" y1="315.5591" x2="288.0063" y2="347.1226" gradientTransform="matrix(1 0 0 -1 0 841.8898)">
			<stop  offset="0.4656" style="stop-color:#D1ECEE"/>
			<stop  offset="0.4803" style="stop-color:#CEEAEC"/>
			<stop  offset="0.568" style="stop-color:#BFE0E4"/>
			<stop  offset="0.6719" style="stop-color:#B7DCE0"/>
			<stop  offset="0.8324" style="stop-color:#B4DADF"/>
		</linearGradient>
		<path style="fill:url(#SVGID_00000100368431338085244780000016339809629462475943_);" d="M296.8,500.5c8.1,7.7,5.4,17.2-5.1,20.9
			c-11.6,4.1-18.1,6.6-29.4,0.6c-9.9-5.2-6.9-19,3.6-22.7C276.4,495.6,287.9,492,296.8,500.5z"/>
		<path class="st20" d="M266.3,507.9c-2.9,2.2-4.4,5.2-3.3,6.7c1.1,1.5,2.4-1.8,5.3-4s6.4-2.5,5.3-4
			C272.5,505.1,269.2,505.7,266.3,507.9z"/>
		<path class="st8" d="M302.5,506.4c-2.8,8.3-10.3,4.9-21.9,4.9s-20.3-6.1-20.3-13c0-8.8,9.5-16,21.1-16S307,493.3,302.5,506.4z"/>
		
			<linearGradient id="SVGID_00000071528717106572542330000011576195520112421290_" gradientUnits="userSpaceOnUse" x1="296.5631" y1="347.7765" x2="296.5631" y2="432.2673" gradientTransform="matrix(1 0 0 -1 0 841.8898)">
			<stop  offset="0" style="stop-color:#978871"/>
			<stop  offset="0.4104" style="stop-color:#95856F"/>
			<stop  offset="0.6461" style="stop-color:#8E7E69"/>
			<stop  offset="0.837" style="stop-color:#827160"/>
			<stop  offset="0.9106" style="stop-color:#7C6A5A"/>
		</linearGradient>
		<path style="fill:url(#SVGID_00000071528717106572542330000011576195520112421290_);" d="M310.1,452.5c2.8,23.3-8,41.9-11.7,41.6
			c-34.3-2.7-1.9-19-4.7-42.3c-2.8-23.3-9.2-41.7-5.6-42.2S307.3,429.2,310.1,452.5z"/>
		<path class="st38" d="M263.6,518.4c-1.4,0-2.8,0.1-4.1,0.2c-8.9,0.5-17.9,29.2-20.7,32.4c-9.8,11.4-33.7,12-60.8,2.9
			c-39.2-13.1-15.6-52.1,14.5-58.1"/>
		<g>
			<g>
				<path class="st16" d="M158,538.8c0.6,0,1.6-0.2,1.9-0.8c0.3-0.6-0.3-0.7-0.7-0.7c-0.6,0-1.6,0.2-1.9,0.8
					C157,538.6,157.5,538.8,158,538.8L158,538.8z"/>
			</g>
		</g>
	</g>
	<g class="st27">
		<path class="st6" d="M376,582.6l-75.4,8.3c-1.8,0.2-3.5-0.5-4.9-1.8l-3.6-3.5c-4.1-4-2.1-11.3,3.2-11.9l75.4-8.3
			c1.8-0.2,3.5,0.5,4.9,1.8l3.6,3.5C383.3,574.7,381.3,582,376,582.6z"/>
		<path class="st6" d="M308.4,575.5l-69.5-29.1c-1.6-0.7-3.5-0.5-5.3,0.5l-4.6,2.6c-5.3,3-5.9,11-1,13l69.5,29.1
			c1.6,0.7,3.5,0.5,5.3-0.5l4.6-2.6C312.7,585.6,313.3,577.6,308.4,575.5z"/>
		<path class="st6" d="M299.4,573.4l-70.6,26.5c-1.6,0.6-2.9,2-3.4,3.9l-1.3,4.9c-1.5,5.7,4,11.7,9,9.8l70.6-26.5
			c1.6-0.6,2.9-2,3.4-3.9l1.3-4.9C309.9,577.6,304.4,571.6,299.4,573.4z"/>
		<path class="st6" d="M367.2,618.8l-62.1-41.6c-1.4-1-3.4-1.2-5.3-0.5l-5,1.7c-5.8,1.9-8,9.6-3.6,12.6l62.1,41.6
			c1.4,1,3.4,1.2,5.3,0.5l5-1.7C369.4,629.5,371.6,621.8,367.2,618.8z"/>
		<path class="st6" d="M303.4,591.5h-6c-4.7,0-8.4-3.8-8.4-8.4V467.3h22.9v115.8C311.8,587.7,308,591.5,303.4,591.5z"/>
		<path class="st6" d="M304.5,440.3l-3.9-126.6c-0.1-4.4,4.3-7.6,8.7-6.2l84.2,25.5c2.7,0.8,4.6,3.2,4.6,5.9l3.9,126.6
			c0.1,4.4-4.3,7.6-8.7,6.2l-84.2-25.5C306.4,445.4,304.5,443,304.5,440.3z"/>
		<path class="st6" d="M308.2,525l-100.3-30.5c-2.3-0.7-2.6-3.7-0.4-4.7l83.9-42.3c0.6-0.3,1.4-0.4,2.1-0.2l100.3,30.5
			c2.3,0.7,2.6,3.7,0.4,4.7l-83.9,42.3C309.6,525.1,308.9,525.2,308.2,525z"/>
		<rect x="336.5" y="447.1" class="st6" width="11.1" height="23"/>
		<path class="st7" d="M299.9,431.3l-3.3-108.5c-0.1-3.8,3.7-6.5,7.5-5.4l72.2,21.9c2.3,0.7,3.9,2.7,4,5l3.3,108.5
			c0.1,3.8-3.7,6.5-7.5,5.4l-72.2-21.9C301.6,435.7,300,433.6,299.9,431.3z"/>
		<path class="st8" d="M248.3,497.5c-25.6,18.1-35.2,53.2-45.2,40.3s12.6-42.6,38.3-60.7s44.5-17.6,54.5-4.8
			C306,485.3,274,479.4,248.3,497.5z"/>
		<path class="st8" d="M274.7,517.9c-10.7,21.2,2.1,51.3-14,44c-16-7.4-14.6-36.9-3.9-58c10.7-21.2,26.8-26,42.8-18.7
			C315.7,492.5,285.4,496.7,274.7,517.9z"/>
		<path class="st8" d="M267.2,564.8c-8,13.4-25.9,4.5-26.9,3.9c-1.5-0.8-14.2-7.6-6.1-21c8-13.4,20.2-9.2,24.1-7.3
			C260.7,541.7,275.2,551.4,267.2,564.8z"/>
		<path class="st8" d="M215.2,536.9c-8,13.4-25.9,4.5-26.9,3.9c-1.5-0.8-14.2-7.6-6.1-21c8-13.4,20.2-9.2,24.1-7.3
			C208.7,513.8,223.2,523.5,215.2,536.9z"/>
		
			<linearGradient id="SVGID_00000124851434914250088310000005067756844783487136_" gradientUnits="userSpaceOnUse" x1="390.4756" y1="337.8521" x2="302.5572" y2="337.8521" gradientTransform="matrix(1 0 0 -1 0 841.8898)">
			<stop  offset="0" style="stop-color:#978871"/>
			<stop  offset="0.3718" style="stop-color:#95856F"/>
			<stop  offset="0.5853" style="stop-color:#8E7E69"/>
			<stop  offset="0.7583" style="stop-color:#827160"/>
			<stop  offset="0.825" style="stop-color:#7C6A5A"/>
		</linearGradient>
		<path style="fill:url(#SVGID_00000124851434914250088310000005067756844783487136_);" d="M381.4,544.3c-23,3.8,7.3-63.6-36.1-42.5
			c-28,13.6-45.1-32.1-42.5-34.9c14.6-15.2,12.6,27.8,48.5,15C395,466.2,397.5,541.6,381.4,544.3z"/>
		<path class="st10" d="M272.9,441.9c-0.7,19.4-4.5,34.8-21.7,34.2s-4.6-16-3.9-35.4s-10.8-35.3,6.4-34.7S273.6,422.5,272.9,441.9z"
			/>
		
			<radialGradient id="SVGID_00000116938909066527475450000009991306383561865897_" cx="260.8928" cy="393.4709" r="43.8777" gradientTransform="matrix(1 0 0 -1 0 841.8898)" gradientUnits="userSpaceOnUse">
			<stop  offset="0" style="stop-color:#978871"/>
			<stop  offset="0.4507" style="stop-color:#95856F"/>
			<stop  offset="0.7095" style="stop-color:#8E7E69"/>
			<stop  offset="0.9192" style="stop-color:#827160"/>
			<stop  offset="1" style="stop-color:#7C6A5A"/>
		</radialGradient>
		<path style="fill:url(#SVGID_00000116938909066527475450000009991306383561865897_);" d="M313.5,466.6c0,24.3-21.4,40.1-47,32.6
			c-25.2-7.4-14.6-19-14.6-43.4s-14.8-60,12-60S313.5,442.3,313.5,466.6z"/>
		
			<linearGradient id="SVGID_00000133526211462679201510000006470793818228889235_" gradientUnits="userSpaceOnUse" x1="197.9265" y1="542.1528" x2="226.0623" y2="493.4202" gradientTransform="matrix(1 0 0 -1 0 841.8898)">
			<stop  offset="0" style="stop-color:#978871"/>
			<stop  offset="0.5161" style="stop-color:#958670"/>
			<stop  offset="0.702" style="stop-color:#8F7F6B"/>
			<stop  offset="0.834" style="stop-color:#867563"/>
			<stop  offset="0.9143" style="stop-color:#7C6A5A"/>
		</linearGradient>
		<path style="fill:url(#SVGID_00000133526211462679201510000006470793818228889235_);" d="M206.7,359.7l-7.3-59.9
			c-0.2-1.2,1.3-1.9,2.1-0.9l41.9,35L206.7,359.7z"/>
		<path class="st8" d="M294,375.4c0,24.1-25.3,35.2-50.6,35.2c-25.3,0-41.9-10.8-41.9-34.9s18.8-46.6,44.1-46.6S294,351.3,294,375.4
			z"/>
		<path class="st8" d="M291.1,371.1c6-6.2-3.8-74.8-3.8-74.8c0-1.2-1.8-1.6-2.5-0.5l-32.2,33.3C252.5,329.1,281.2,381.4,291.1,371.1
			z"/>
		
			<linearGradient id="SVGID_00000084492760110408802010000006225035213231902391_" gradientUnits="userSpaceOnUse" x1="218.3929" y1="457.0002" x2="218.3929" y2="477.7698" gradientTransform="matrix(1 0 0 -1 0 841.8898)">
			<stop  offset="6.819570e-07" style="stop-color:#D1ECEE"/>
			<stop  offset="0.2959" style="stop-color:#CEEAEC"/>
			<stop  offset="0.4995" style="stop-color:#C5E4E7"/>
			<stop  offset="0.6732" style="stop-color:#B7DBE0"/>
			<stop  offset="1" style="stop-color:#B4DADF"/>
		</linearGradient>
		<path style="fill:url(#SVGID_00000084492760110408802010000006225035213231902391_);" d="M205.7,364.1c0,0.1-0.1,0.3-0.1,0.5
			c-1.9,9.5,2.7,18.4,10.2,19.8c7.5,1.5,13.4,0,15.3-9.5c0.4-2.3,0.6-4.9,0.5-7.5C222.9,366.5,214.3,365.4,205.7,364.1z"/>
		
			<linearGradient id="SVGID_00000020400934770751520000000009237786494704074684_" gradientUnits="userSpaceOnUse" x1="263.8354" y1="451.1373" x2="263.8354" y2="473.2599" gradientTransform="matrix(1 0 0 -1 0 841.8898)">
			<stop  offset="6.819570e-07" style="stop-color:#D1ECEE"/>
			<stop  offset="0.2959" style="stop-color:#CEEAEC"/>
			<stop  offset="0.4995" style="stop-color:#C5E4E7"/>
			<stop  offset="0.6732" style="stop-color:#B7DBE0"/>
			<stop  offset="1" style="stop-color:#B4DADF"/>
		</linearGradient>
		<path style="fill:url(#SVGID_00000020400934770751520000000009237786494704074684_);" d="M284.2,370.3c-3.5,0.3-6.9,0.4-10.5,0.2
			c-9.6-0.4-19.3-1.1-28.9-1.9c-0.7,2.4-1.2,5-1.3,7.4c-0.5,10.9,7.6,14,19.1,14.7c11.5,0.7,21.2-7.5,21.7-18.5
			C284.3,371.6,284.2,371,284.2,370.3z"/>
		<path class="st6" d="M217.4,365.8c-0.3,1.5-0.7,3.2-1,4.8c-0.6,3.2-0.8,6.4-0.8,9.5c0,3.1,1.1,5.8,2.4-0.3c1.3-6,1.6-7.6,3.2-13.5
			C219.9,366.1,218.7,365.9,217.4,365.8z"/>
		
			<linearGradient id="SVGID_00000177470402873911583560000010859160189733586591_" gradientUnits="userSpaceOnUse" x1="254.3453" y1="454.6617" x2="254.3453" y2="472.6049" gradientTransform="matrix(1 0 0 -1 0 841.8898)">
			<stop  offset="6.819570e-07" style="stop-color:#6D747B"/>
			<stop  offset="0.5212" style="stop-color:#6A7178"/>
			<stop  offset="0.8799" style="stop-color:#636A71"/>
			<stop  offset="1" style="stop-color:#5F666E"/>
		</linearGradient>
		<path style="fill:url(#SVGID_00000177470402873911583560000010859160189733586591_);" d="M252.8,369.3c-0.4,1.7-0.7,3.7-1.1,5.7
			c-0.6,3-0.7,6.1-0.6,9c0.1,2.9,1.5,5.6,2.8-0.2c1.4-6.2,1.6-7.1,3.7-14.2C255.9,369.6,254.4,369.2,252.8,369.3z"/>
		<path class="st16" d="M202,381.7c0,0-15.3-4-31,6.1c0,0,18.5-8.7,29.6-4.7C200.6,383.2,202.8,383.7,202,381.7z"/>
		<path class="st16" d="M202.7,386.1c0,0-15.7-1.7-29.6,10.6c0,0,16.8-11.3,28.5-9C201.6,387.7,203.8,387.9,202.7,386.1z"/>
		<path class="st16" d="M204.6,390.7c0,0-15,2-24.7,16.8c0,0,12.8-14.5,24.1-15C204,392.5,206.1,392.2,204.6,390.7z"/>
		<path class="st16" d="M271.4,392.4c0,0,12.6,1.9,20.7,16c0,0-10.6-13.9-20.2-14.3C271.9,394.1,270.1,393.9,271.4,392.4z"/>
		<path class="st16" d="M270.7,396.9c0,0,11.7,5,15.6,20.6c0,0-6.4-16-15.6-18.8C270.7,398.6,269.1,397.9,270.7,396.9z"/>
		<path class="st16" d="M269.7,400.7c0,0,9.1,8.7,6.7,24.5c0,0,0.1-17-7.4-22.9C269,402.3,267.8,401.1,269.7,400.7z"/>
		<polygon class="st4" points="354.9,695.5 118.6,605.9 -15.3,677.8 221,767.4 		"/>
		<polyline class="st10" points="0.4,508.7 0.4,683.7 -15.3,677.8 -15.3,502.6 		"/>
		<polyline class="st17" points="354.9,521 354.9,695.5 340,703.3 343.1,527.6 		"/>
		<polygon class="st10" points="221.5,594.8 221,767.4 206.6,761.5 206.6,588.6 		"/>
		<polygon class="st17" points="236.7,586.5 236.7,758.9 221,767.4 221.5,594.8 		"/>
		<path class="st18" d="M0.4,683.7"/>
		<polygon class="st17" points="329.3,527.9 327.1,698.3 340.1,703.3 343.6,524.7 		"/>
		<polygon class="st17" points="12.6,508.5 12.6,676.5 0.4,683.7 0.4,508.7 		"/>
		<polygon class="st17" points="118.6,427 118.6,620.8 131.4,613 129.5,433.1 		"/>
		<polygon class="st17" points="104.7,432.1 102.8,614.9 118.6,620.8 118.6,424.6 		"/>
		<polygon class="st17" points="-27.9,497.2 -27.9,503.3 222.9,595.5 364.1,521.7 364.1,514.9 222.4,586.8 		"/>
		<polygon class="st10" points="364.1,514.9 113.9,425.3 -27.9,497.2 222.4,586.8 		"/>
		
			<linearGradient id="SVGID_00000008148670778083215270000015663924364458179468_" gradientUnits="userSpaceOnUse" x1="148.4435" y1="319.9432" x2="159.6423" y2="361.7376" gradientTransform="matrix(1 0 0 -1 0 841.8898)">
			<stop  offset="6.819570e-07" style="stop-color:#D1ECEE"/>
			<stop  offset="0.2959" style="stop-color:#CEEAEC"/>
			<stop  offset="0.4995" style="stop-color:#C5E4E7"/>
			<stop  offset="0.6732" style="stop-color:#B7DBE0"/>
			<stop  offset="1" style="stop-color:#B4DADF"/>
		</linearGradient>
		<path style="fill:url(#SVGID_00000008148670778083215270000015663924364458179468_);" d="M203.6,499.1l-64.2-24.4
			c-1.7-0.6-3.6-0.5-5.2,0.3l-30.5,16.4c-4.8,2.6-4.3,9.6,0.8,11.5l64.2,24.3c1.7,0.7,3.6,0.5,5.2-0.3l30.5-16.4
			C209.2,508,208.7,501,203.6,499.1z"/>
		<path class="st16" d="M225.3,517L95,466.8c-3.8-1.5-6.4-5.1-6.4-9.3l-0.2-83.1c0-7,7-11.8,13.5-9.3l130.3,50.2
			c3.8,1.5,6.4,5.1,6.4,9.3l0.2,83.1C238.9,514.7,231.9,519.5,225.3,517z"/>
		<path class="st20" d="M126,474.8l-1.8-0.7c-0.8-0.3-1.2-1-1.2-1.8l-0.1-20.9c0-1.4,1.4-2.3,2.7-1.8l1.8,0.7c0.8,0.3,1.2,1,1.2,1.8
			l0.1,20.8C128.7,474.4,127.3,475.3,126,474.8z"/>
		<path class="st20" d="M134.4,478.5l-1.8-0.7c-0.8-0.3-1.2-1-1.2-1.8l-0.1-20.9c0-1.4,1.4-2.3,2.6-1.8l1.8,0.7
			c0.8,0.3,1.2,1,1.2,1.8l0.1,20.8C137.1,478.1,135.7,479,134.4,478.5z"/>
		<path class="st20" d="M143,481.6l-1.8-0.7c-0.8-0.3-1.2-1-1.2-1.8l-0.1-20.9c0-1.4,1.4-2.3,2.6-1.8l1.8,0.7c0.8,0.3,1.2,1,1.2,1.8
			l0.1,20.8C145.6,481.1,144.2,482.1,143,481.6z"/>
		<path class="st20" d="M151.4,485.3l-1.8-0.7c-0.8-0.3-1.2-1-1.2-1.8l-0.1-20.9c0-1.4,1.4-2.3,2.6-1.8l1.8,0.7
			c0.8,0.3,1.2,1,1.2,1.8l0.1,20.8C154.1,484.9,152.7,485.8,151.4,485.3z"/>
		<path class="st20" d="M159.8,489l-1.8-0.7c-0.8-0.3-1.2-1-1.2-1.8l-0.1-20.9c0-1.4,1.4-2.3,2.6-1.8l1.8,0.7c0.8,0.3,1.2,1,1.2,1.8
			l0.1,20.8C162.5,488.5,161.1,489.5,159.8,489z"/>
		<path class="st20" d="M168.4,492.1l-1.8-0.7c-0.8-0.3-1.2-1-1.2-1.8l-0.1-20.9c0-1.4,1.4-2.3,2.6-1.8l1.8,0.7
			c0.8,0.3,1.2,1,1.2,1.8l0.1,20.8C171,491.6,169.6,492.5,168.4,492.1z"/>
		<path class="st20" d="M176.8,495.8l-1.8-0.7c-0.8-0.3-1.2-1-1.2-1.8l-0.1-20.9c0-1.4,1.4-2.3,2.6-1.8l1.8,0.7
			c0.8,0.3,1.2,1,1.2,1.8l0.1,20.8C179.4,495.3,178.1,496.2,176.8,495.8z"/>
		<polygon class="st7" points="57.2,500.5 33.9,491.8 33.9,435.6 57.2,444.3 		"/>
		<polygon class="st6" points="57.2,500.5 72.2,491.8 72.2,435.6 57.2,444.3 		"/>
		
			<linearGradient id="SVGID_00000043452830093962443870000017434672668886606727_" gradientUnits="userSpaceOnUse" x1="41.8675" y1="398.2623" x2="50.7025" y2="407.0973" gradientTransform="matrix(1 0 0 -1 0 841.8898)">
			<stop  offset="6.819570e-07" style="stop-color:#D1ECEE"/>
			<stop  offset="0.3663" style="stop-color:#CEEAEC"/>
			<stop  offset="0.6183" style="stop-color:#C5E4E7"/>
			<stop  offset="0.8333" style="stop-color:#B7DBE0"/>
			<stop  offset="1" style="stop-color:#B4DADF"/>
		</linearGradient>
		<polygon style="fill:url(#SVGID_00000043452830093962443870000017434672668886606727_);" points="33.9,435.6 44.6,428.6 
			57.2,444.3 		"/>
		<polygon class="st16" points="72.2,435.6 59.9,424.1 44.6,428.6 57.2,444.3 		"/>
		<polygon class="st16" points="59.9,424.1 44.6,428.6 44.6,424.6 60.3,420.8 		"/>
		
			<linearGradient id="SVGID_00000168086262008852376460000006767560205849425078_" gradientUnits="userSpaceOnUse" x1="269.7831" y1="315.5591" x2="288.0063" y2="347.1226" gradientTransform="matrix(1 0 0 -1 0 841.8898)">
			<stop  offset="0.4656" style="stop-color:#D1ECEE"/>
			<stop  offset="0.4803" style="stop-color:#CEEAEC"/>
			<stop  offset="0.568" style="stop-color:#BFE0E4"/>
			<stop  offset="0.6719" style="stop-color:#B7DCE0"/>
			<stop  offset="0.8324" style="stop-color:#B4DADF"/>
		</linearGradient>
		<path style="fill:url(#SVGID_00000168086262008852376460000006767560205849425078_);" d="M296.8,500.5c8.1,7.7,5.4,17.2-5.1,20.9
			c-11.6,4.1-18.1,6.6-29.4,0.6c-9.9-5.2-6.9-19,3.6-22.7C276.4,495.6,287.9,492,296.8,500.5z"/>
		<path class="st20" d="M266.3,507.9c-2.9,2.2-4.4,5.2-3.3,6.7c1.1,1.5,2.4-1.8,5.3-4s6.4-2.5,5.3-4
			C272.5,505.1,269.2,505.7,266.3,507.9z"/>
		<path class="st8" d="M302.5,506.4c-2.8,8.3-10.3,4.9-21.9,4.9s-20.3-6.1-20.3-13c0-8.8,9.5-16,21.1-16S307,493.3,302.5,506.4z"/>
		
			<linearGradient id="SVGID_00000036935368053247507710000005801630791413468803_" gradientUnits="userSpaceOnUse" x1="296.5631" y1="347.7765" x2="296.5631" y2="432.2673" gradientTransform="matrix(1 0 0 -1 0 841.8898)">
			<stop  offset="0" style="stop-color:#978871"/>
			<stop  offset="0.4104" style="stop-color:#95856F"/>
			<stop  offset="0.6461" style="stop-color:#8E7E69"/>
			<stop  offset="0.837" style="stop-color:#827160"/>
			<stop  offset="0.9106" style="stop-color:#7C6A5A"/>
		</linearGradient>
		<path style="fill:url(#SVGID_00000036935368053247507710000005801630791413468803_);" d="M310.1,452.5c2.8,23.3-8,41.9-11.7,41.6
			c-34.3-2.7-1.9-19-4.7-42.3c-2.8-23.3-9.2-41.7-5.6-42.2S307.3,429.2,310.1,452.5z"/>
		<path class="st38" d="M263.6,518.4c-1.4,0-2.8,0.1-4.1,0.2c-8.9,0.5-17.9,29.2-20.7,32.4c-9.8,11.4-33.7,12-60.8,2.9
			c-39.2-13.1-15.6-52.1,14.5-58.1"/>
		<g>
			<g>
				<path class="st16" d="M158,538.8c0.6,0,1.6-0.2,1.9-0.8c0.3-0.6-0.3-0.7-0.7-0.7c-0.6,0-1.6,0.2-1.9,0.8
					C157,538.6,157.5,538.8,158,538.8L158,538.8z"/>
			</g>
		</g>
	</g>
</g>
<g id="Layer_8">
</g>
<linearGradient id="SVGID_00000068679446686563766030000012068335939243841198_" gradientUnits="userSpaceOnUse" x1="407.7841" y1="272.0533" x2="426.0073" y2="303.6168" gradientTransform="matrix(1 0 0 -1 0 841.8898)">
	<stop  offset="0.4656" style="stop-color:#D1ECEE"/>
	<stop  offset="0.4803" style="stop-color:#CEEAEC"/>
	<stop  offset="0.568" style="stop-color:#BFE0E4"/>
	<stop  offset="0.6719" style="stop-color:#B7DCE0"/>
	<stop  offset="0.8324" style="stop-color:#B4DADF"/>
</linearGradient>
<path style="fill:url(#SVGID_00000068679446686563766030000012068335939243841198_);" d="M434.8,544c8.1,7.7,5.4,17.2-5.1,20.9
	c-11.6,4.1-18.1,6.6-29.4,0.6c-9.9-5.2-6.9-19,3.6-22.7C414.4,539.1,425.9,535.5,434.8,544z"/>
<path class="st20" d="M404.3,551.4c-2.9,2.2-4.4,5.2-3.3,6.7s2.4-1.8,5.3-4c2.9-2.2,6.4-2.5,5.3-4S407.2,549.2,404.3,551.4z"/>
<path class="st8" d="M440.6,549.9c-2.8,8.3-10.3,4.9-21.9,4.9c-11.7,0-20.3-6.1-20.3-13c0-8.8,9.5-16,21.1-16S445,536.8,440.6,549.9
	z"/>
<linearGradient id="SVGID_00000059288991818285044490000005418828106772401298_" gradientUnits="userSpaceOnUse" x1="434.5643" y1="304.2806" x2="434.5643" y2="388.7708" gradientTransform="matrix(1 0 0 -1 0 841.8898)">
	<stop  offset="0" style="stop-color:#978871"/>
	<stop  offset="0.4104" style="stop-color:#95856F"/>
	<stop  offset="0.6461" style="stop-color:#8E7E69"/>
	<stop  offset="0.837" style="stop-color:#827160"/>
	<stop  offset="0.9106" style="stop-color:#7C6A5A"/>
</linearGradient>
<path style="fill:url(#SVGID_00000059288991818285044490000005418828106772401298_);" d="M448.1,496c2.8,23.3-8,41.9-11.7,41.6
	c-34.3-2.7-1.9-19-4.7-42.3c-2.8-23.3-9.2-41.7-5.6-42.2C429.8,452.7,445.3,472.7,448.1,496z"/>
<path class="st38" d="M401.6,561.9c-1.4,0-2.8,0.1-4.1,0.2c-8.9,0.5-17.9,29.2-20.7,32.4c-9.8,11.4-33.7,12-60.8,2.9
	c-39.2-13.1-15.6-52.1,14.5-58.1"/>
</svg>
