<?xml version="1.0" encoding="utf-8"?>
<!-- Generator: Adobe Illustrator 27.0.1, SVG Export Plug-In . SVG Version: 6.00 Build 0)  -->
<svg version="1.1" xmlns="http://www.w3.org/2000/svg" xmlns:xlink="http://www.w3.org/1999/xlink" x="0px" y="0px"
	 viewBox="0 0 648.6 595.28" style="enable-background:new 0 0 648.6 595.28;" xml:space="preserve">
<style type="text/css">
	.st0{fill:#9BD6D1;}
	.st1{display:none;}
	.st2{display:inline;fill:#FAFDFE;}
	.st3{display:inline;fill:#9BD6D1;}
	.st4{fill:#FAFDFE;}
</style>
<g id="Layer_2">
</g>
<g id="Layer_1">
	<rect class="st0" width="649.86" height="698.52"/>
</g>
<g id="Layer_3" class="st1">
	<rect x="47.22" y="38.33" class="st2" width="124.01" height="505.45"/>
	<rect x="481.42" y="38.33" class="st2" width="124.01" height="505.45"/>
	<rect x="268.33" y="38.33" class="st2" width="115.99" height="505.45"/>
	<polygon class="st2" points="171.23,38.33 326.33,241.61 481.42,38.33 481.42,193.73 326.33,367.18 171.23,202.75 	"/>
	<polygon class="st3" points="268.33,165.6 268.33,305.7 326.33,367.18 384.32,302.33 384.32,165.6 326.33,241.61 	"/>
	<text transform="matrix(1.0479 0 0 1 940.5781 424.7733)" style="display:inline;"><tspan x="0" y="0" class="st4" style="font-family:'Impact'; font-size:51.3451px;">INFORMASJONSTEKNOLOGI </tspan><tspan x="52.4" y="61.61" class="st4" style="font-family:'Impact'; font-size:51.3451px;">&amp; MEDIAPRODUKSJON</tspan></text>
</g>
<g id="Layer_4">
	<path class="st4" d="M485.12,549.28L72.66,136.82c-13.61-13.61-13.61-35.69,0-49.3L114.19,46c13.61-13.61,35.69-13.61,49.3,0
		l412.46,412.46c13.61,13.61,13.61,35.69,0,49.3l-41.53,41.53C520.8,562.89,498.73,562.89,485.12,549.28z"/>
	<path class="st4" d="M575.94,136.82L163.49,549.28c-13.61,13.61-35.69,13.61-49.3,0l-41.53-41.53c-13.61-13.61-13.61-35.69,0-49.3
		L485.12,46c13.61-13.61,35.69-13.61,49.3,0l41.53,41.53C589.56,101.14,589.56,123.21,575.94,136.82z"/>
</g>
<g id="Layer_5">
</g>
</svg>
